<svg width="1512" height="982" viewBox="0 0 1512 982" fill="none" xmlns="http://www.w3.org/2000/svg">
<g clip-path="url(#clip0_7751_280216)">
<path d="M0 5.99997C0 2.68627 2.68629 0 6 0H1506C1509.31 0 1512 2.68629 1512 6V976C1512 979.314 1509.31 982 1506 982H5.99998C2.68627 982 0 979.314 0 976V5.99997Z" fill="white"/>
<g opacity="0.5" clip-path="url(#clip1_7751_280216)">
<rect width="1988" height="1216" transform="translate(-280 -175)" fill="white"/>
<mask id="mask0_7751_280216" style="mask-type:alpha" maskUnits="userSpaceOnUse" x="-334" y="-132" width="1710" height="756">
<rect x="-334" y="-131.609" width="1710" height="755.525" fill="url(#paint0_radial_7751_280216)"/>
</mask>
<g mask="url(#mask0_7751_280216)">
<rect x="-40.7495" y="-34.2109" width="42" height="42" stroke="#B2ADBE" stroke-width="0.6"/>
<rect x="1.25049" y="-34.2109" width="42" height="42" stroke="#B2ADBE" stroke-width="0.6"/>
<rect x="43.2505" y="-34.2109" width="42" height="42" stroke="#B2ADBE" stroke-width="0.6"/>
<rect x="85.2505" y="-34.2109" width="42" height="42" stroke="#B2ADBE" stroke-width="0.6"/>
<rect x="127.25" y="-34.2109" width="42" height="42" stroke="#B2ADBE" stroke-width="0.6"/>
<rect x="169.25" y="-34.2109" width="42" height="42" stroke="#B2ADBE" stroke-width="0.6"/>
<rect x="211.25" y="-34.2109" width="42" height="42" stroke="#B2ADBE" stroke-width="0.6"/>
<rect x="253.25" y="-34.2109" width="42" height="42" stroke="#B2ADBE" stroke-width="0.6"/>
<rect x="295.25" y="-34.2109" width="42" height="42" stroke="#B2ADBE" stroke-width="0.6"/>
<rect x="379.25" y="-34.2109" width="42" height="42" stroke="#B2ADBE" stroke-width="0.6"/>
<rect x="421.25" y="-34.2109" width="42" height="42" stroke="#B2ADBE" stroke-width="0.6"/>
<rect x="463.25" y="-34.2109" width="42" height="42" stroke="#B2ADBE" stroke-width="0.6"/>
<rect x="505.25" y="-34.2109" width="42" height="42" stroke="#B2ADBE" stroke-width="0.6"/>
<rect x="547.25" y="-34.2109" width="42" height="42" stroke="#B2ADBE" stroke-width="0.6"/>
<rect x="589.25" y="-34.2109" width="42" height="42" stroke="#B2ADBE" stroke-width="0.6"/>
<rect x="631.25" y="-34.2109" width="42" height="42" stroke="#B2ADBE" stroke-width="0.6"/>
<rect x="673.25" y="-34.2109" width="42" height="42" stroke="#B2ADBE" stroke-width="0.6"/>
<rect x="715.25" y="-34.2109" width="42" height="42" stroke="#B2ADBE" stroke-width="0.6"/>
<rect x="757.25" y="-34.2109" width="42" height="42" stroke="#B2ADBE" stroke-width="0.6"/>
<rect x="799.25" y="-34.2109" width="42" height="42" stroke="#B2ADBE" stroke-width="0.6"/>
<rect x="841.25" y="-34.2109" width="42" height="42" stroke="#B2ADBE" stroke-width="0.6"/>
<rect x="883.25" y="-34.2109" width="42" height="42" stroke="#B2ADBE" stroke-width="0.6"/>
<rect x="925.25" y="-34.2109" width="42" height="42" stroke="#B2ADBE" stroke-width="0.6"/>
<rect x="967.25" y="-34.2109" width="42" height="42" stroke="#B2ADBE" stroke-width="0.6"/>
<rect x="1009.25" y="-34.2109" width="42" height="42" stroke="#B2ADBE" stroke-width="0.6"/>
<rect x="1051.25" y="-34.2109" width="42" height="42" stroke="#B2ADBE" stroke-width="0.6"/>
<rect x="1093.25" y="-34.2109" width="42" height="42" stroke="#B2ADBE" stroke-width="0.6"/>
<rect x="-40.7495" y="49.7891" width="42" height="42" stroke="#B2ADBE" stroke-width="0.6"/>
<rect x="1.25049" y="49.7891" width="42" height="42" stroke="#B2ADBE" stroke-width="0.6"/>
<rect x="43.2505" y="49.7891" width="42" height="42" stroke="#B2ADBE" stroke-width="0.6"/>
<rect x="85.2505" y="49.7891" width="42" height="42" stroke="#B2ADBE" stroke-width="0.6"/>
<rect x="127.25" y="49.7891" width="42" height="42" stroke="#B2ADBE" stroke-width="0.6"/>
<rect x="211.25" y="49.7891" width="42" height="42" stroke="#B2ADBE" stroke-width="0.6"/>
<rect x="253.25" y="49.7891" width="42" height="42" stroke="#B2ADBE" stroke-width="0.6"/>
<rect x="295.25" y="49.7891" width="42" height="42" stroke="#B2ADBE" stroke-width="0.6"/>
<rect x="337.25" y="49.7891" width="42" height="42" stroke="#B2ADBE" stroke-width="0.6"/>
<rect x="379.25" y="49.7891" width="42" height="42" stroke="#B2ADBE" stroke-width="0.6"/>
<rect x="421.25" y="49.7891" width="42" height="42" stroke="#B2ADBE" stroke-width="0.6"/>
<rect x="463.25" y="49.7891" width="42" height="42" stroke="#B2ADBE" stroke-width="0.6"/>
<rect x="505.25" y="49.7891" width="42" height="42" stroke="#B2ADBE" stroke-width="0.6"/>
<rect x="547.25" y="49.7891" width="42" height="42" stroke="#B2ADBE" stroke-width="0.6"/>
<rect x="589.25" y="49.7891" width="42" height="42" stroke="#B2ADBE" stroke-width="0.6"/>
<rect x="631.25" y="49.7891" width="42" height="42" stroke="#B2ADBE" stroke-width="0.6"/>
<rect x="673.25" y="49.7891" width="42" height="42" stroke="#B2ADBE" stroke-width="0.6"/>
<rect x="715.25" y="49.7891" width="42" height="42" stroke="#B2ADBE" stroke-width="0.6"/>
<rect x="757.25" y="49.7891" width="42" height="42" stroke="#B2ADBE" stroke-width="0.6"/>
<rect x="799.25" y="49.7891" width="42" height="42" stroke="#B2ADBE" stroke-width="0.6"/>
<rect x="841.25" y="49.7891" width="42" height="42" stroke="#B2ADBE" stroke-width="0.6"/>
<rect x="883.25" y="49.7891" width="42" height="42" stroke="#B2ADBE" stroke-width="0.6"/>
<rect x="925.25" y="49.7891" width="42" height="42" stroke="#B2ADBE" stroke-width="0.6"/>
<rect x="967.25" y="49.7891" width="42" height="42" stroke="#B2ADBE" stroke-width="0.6"/>
<rect x="1009.25" y="49.7891" width="42" height="42" stroke="#B2ADBE" stroke-width="0.6"/>
<rect x="1051.25" y="49.7891" width="42" height="42" stroke="#B2ADBE" stroke-width="0.6"/>
<rect x="1093.25" y="49.7891" width="42" height="42" stroke="#B2ADBE" stroke-width="0.6"/>
<rect x="-40.7495" y="7.78906" width="42" height="42" stroke="#B2ADBE" stroke-width="0.6"/>
<rect x="1.25049" y="7.78906" width="42" height="42" stroke="#B2ADBE" stroke-width="0.6"/>
<rect x="43.2505" y="7.78906" width="42" height="42" stroke="#B2ADBE" stroke-width="0.6"/>
<rect x="85.2505" y="7.78906" width="42" height="42" stroke="#B2ADBE" stroke-width="0.6"/>
<rect x="127.25" y="7.78906" width="42" height="42" stroke="#B2ADBE" stroke-width="0.6"/>
<rect x="169.25" y="7.78906" width="42" height="42" stroke="#B2ADBE" stroke-width="0.6"/>
<rect x="211.25" y="7.78906" width="42" height="42" stroke="#B2ADBE" stroke-width="0.6"/>
<rect x="253.25" y="7.78906" width="42" height="42" stroke="#B2ADBE" stroke-width="0.6"/>
<rect x="295.25" y="7.78906" width="42" height="42" stroke="#B2ADBE" stroke-width="0.6"/>
<rect x="337.25" y="7.78906" width="42" height="42" stroke="#B2ADBE" stroke-width="0.6"/>
<rect x="379.25" y="7.78906" width="42" height="42" stroke="#B2ADBE" stroke-width="0.6"/>
<rect x="421.25" y="7.78906" width="42" height="42" stroke="#B2ADBE" stroke-width="0.6"/>
<rect x="463.25" y="7.78906" width="42" height="42" stroke="#B2ADBE" stroke-width="0.6"/>
<rect x="505.25" y="7.78906" width="42" height="42" stroke="#B2ADBE" stroke-width="0.6"/>
<rect x="589.25" y="7.78906" width="42" height="42" stroke="#B2ADBE" stroke-width="0.6"/>
<rect x="547.25" y="7.78906" width="42" height="42" fill="#FF006A" fill-opacity="0.2" stroke="#FF006A" stroke-width="0.6"/>
<rect x="631.25" y="7.78906" width="42" height="42" stroke="#B2ADBE" stroke-width="0.6"/>
<rect x="673.25" y="7.78906" width="42" height="42" stroke="#B2ADBE" stroke-width="0.6"/>
<rect x="715.25" y="7.78906" width="42" height="42" stroke="#B2ADBE" stroke-width="0.6"/>
<rect x="757.25" y="7.78906" width="42" height="42" stroke="#B2ADBE" stroke-width="0.6"/>
<rect x="799.25" y="7.78906" width="42" height="42" stroke="#B2ADBE" stroke-width="0.6"/>
<rect x="841.25" y="7.78906" width="42" height="42" stroke="#B2ADBE" stroke-width="0.6"/>
<rect x="883.25" y="7.78906" width="42" height="42" stroke="#B2ADBE" stroke-width="0.6"/>
<rect x="925.25" y="7.78906" width="42" height="42" stroke="#B2ADBE" stroke-width="0.6"/>
<rect x="967.25" y="7.78906" width="42" height="42" stroke="#B2ADBE" stroke-width="0.6"/>
<rect x="1009.25" y="7.78906" width="42" height="42" stroke="#B2ADBE" stroke-width="0.6"/>
<rect x="1051.25" y="7.78906" width="42" height="42" stroke="#B2ADBE" stroke-width="0.6"/>
<rect x="1093.25" y="7.78906" width="42" height="42" stroke="#B2ADBE" stroke-width="0.6"/>
<rect x="-40.7495" y="133.789" width="42" height="42" stroke="#B2ADBE" stroke-width="0.6"/>
<rect x="1.25049" y="133.789" width="42" height="42" stroke="#B2ADBE" stroke-width="0.6"/>
<rect x="43.2505" y="133.789" width="42" height="42" stroke="#B2ADBE" stroke-width="0.6"/>
<rect x="85.2505" y="133.789" width="42" height="42" stroke="#B2ADBE" stroke-width="0.6"/>
<rect x="127.25" y="133.789" width="42" height="42" stroke="#B2ADBE" stroke-width="0.6"/>
<rect x="169.25" y="133.789" width="42" height="42" stroke="#B2ADBE" stroke-width="0.6"/>
<rect x="211.25" y="133.789" width="42" height="42" stroke="#B2ADBE" stroke-width="0.6"/>
<rect x="253.25" y="133.789" width="42" height="42" stroke="#B2ADBE" stroke-width="0.6"/>
<rect x="295.25" y="133.789" width="42" height="42" stroke="#B2ADBE" stroke-width="0.6"/>
<rect x="337.25" y="133.789" width="42" height="42" stroke="#B2ADBE" stroke-width="0.6"/>
<rect x="421.25" y="133.789" width="42" height="42" stroke="#B2ADBE" stroke-width="0.6"/>
<rect x="463.25" y="133.789" width="42" height="42" stroke="#B2ADBE" stroke-width="0.6"/>
<rect x="505.25" y="133.789" width="42" height="42" stroke="#B2ADBE" stroke-width="0.6"/>
<rect x="547.25" y="133.789" width="42" height="42" stroke="#B2ADBE" stroke-width="0.6"/>
<rect x="589.25" y="133.789" width="42" height="42" stroke="#B2ADBE" stroke-width="0.6"/>
<rect x="631.25" y="133.789" width="42" height="42" stroke="#B2ADBE" stroke-width="0.6"/>
<rect x="673.25" y="133.789" width="42" height="42" stroke="#B2ADBE" stroke-width="0.6"/>
<rect x="715.25" y="133.789" width="42" height="42" stroke="#B2ADBE" stroke-width="0.6"/>
<rect x="757.25" y="133.789" width="42" height="42" stroke="#B2ADBE" stroke-width="0.6"/>
<rect x="799.25" y="133.789" width="42" height="42" stroke="#B2ADBE" stroke-width="0.6"/>
<rect x="841.25" y="133.789" width="42" height="42" stroke="#B2ADBE" stroke-width="0.6"/>
<rect x="883.25" y="133.789" width="42" height="42" stroke="#B2ADBE" stroke-width="0.6"/>
<rect x="925.25" y="133.789" width="42" height="42" stroke="#B2ADBE" stroke-width="0.6"/>
<rect x="967.25" y="133.789" width="42" height="42" stroke="#B2ADBE" stroke-width="0.6"/>
<rect x="1009.25" y="133.789" width="42" height="42" stroke="#B2ADBE" stroke-width="0.6"/>
<rect x="1051.25" y="133.789" width="42" height="42" stroke="#B2ADBE" stroke-width="0.6"/>
<rect x="1093.25" y="133.789" width="42" height="42" stroke="#B2ADBE" stroke-width="0.6"/>
<rect x="-40.7495" y="91.7891" width="42" height="42" stroke="#B2ADBE" stroke-width="0.6"/>
<rect x="1.25049" y="91.7891" width="42" height="42" stroke="#B2ADBE" stroke-width="0.6"/>
<rect x="85.2505" y="91.7891" width="42" height="42" stroke="#B2ADBE" stroke-width="0.6"/>
<rect x="43.2505" y="91.7891" width="42" height="42" fill="#FF30B7" fill-opacity="0.2" stroke="#E300BD" stroke-width="0.6"/>
<rect x="127.25" y="91.7891" width="42" height="42" stroke="#B2ADBE" stroke-width="0.6"/>
<rect x="169.25" y="91.7891" width="42" height="42" stroke="#B2ADBE" stroke-width="0.6"/>
<rect x="211.25" y="91.7891" width="42" height="42" stroke="#B2ADBE" stroke-width="0.6"/>
<rect x="253.25" y="91.7891" width="42" height="42" stroke="#B2ADBE" stroke-width="0.6"/>
<rect x="295.25" y="91.7891" width="42" height="42" stroke="#B2ADBE" stroke-width="0.6"/>
<rect x="337.25" y="91.7891" width="42" height="42" stroke="#B2ADBE" stroke-width="0.6"/>
<rect x="379.25" y="91.7891" width="42" height="42" stroke="#B2ADBE" stroke-width="0.6"/>
<rect x="421.25" y="91.7891" width="42" height="42" stroke="#B2ADBE" stroke-width="0.6"/>
<rect x="463.25" y="91.7891" width="42" height="42" stroke="#B2ADBE" stroke-width="0.6"/>
<rect x="505.25" y="91.7891" width="42" height="42" stroke="#B2ADBE" stroke-width="0.6"/>
<rect x="547.25" y="91.7891" width="42" height="42" stroke="#B2ADBE" stroke-width="0.6"/>
<rect x="589.25" y="91.7891" width="42" height="42" stroke="#B2ADBE" stroke-width="0.6"/>
<rect x="631.25" y="91.7891" width="42" height="42" stroke="#B2ADBE" stroke-width="0.6"/>
<rect x="673.25" y="91.7891" width="42" height="42" stroke="#B2ADBE" stroke-width="0.6"/>
<rect x="715.25" y="91.7891" width="42" height="42" stroke="#B2ADBE" stroke-width="0.6"/>
<rect x="757.25" y="91.7891" width="42" height="42" stroke="#B2ADBE" stroke-width="0.6"/>
<rect x="799.25" y="91.7891" width="42" height="42" stroke="#B2ADBE" stroke-width="0.6"/>
<rect x="841.25" y="91.7891" width="42" height="42" stroke="#B2ADBE" stroke-width="0.6"/>
<rect x="883.25" y="91.7891" width="42" height="42" stroke="#B2ADBE" stroke-width="0.6"/>
<rect x="925.25" y="91.7891" width="42" height="42" stroke="#B2ADBE" stroke-width="0.6"/>
<rect x="169.25" y="49.7891" width="42" height="42" fill="#FFB661" fill-opacity="0.2" stroke="#FFBA33" stroke-width="0.6"/>
<rect x="967.25" y="91.7891" width="42" height="42" stroke="#B2ADBE" stroke-width="0.6"/>
<rect x="1009.25" y="91.7891" width="42" height="42" stroke="#B2ADBE" stroke-width="0.6"/>
<rect x="1051.25" y="91.7891" width="42" height="42" stroke="#B2ADBE" stroke-width="0.6"/>
<rect x="1093.25" y="91.7891" width="42" height="42" stroke="#B2ADBE" stroke-width="0.6"/>
<rect x="-40.7495" y="175.789" width="42" height="42" stroke="#B2ADBE" stroke-width="0.6"/>
<rect x="1.25049" y="175.789" width="42" height="42" stroke="#B2ADBE" stroke-width="0.6"/>
<rect x="43.2505" y="175.789" width="42" height="42" stroke="#B2ADBE" stroke-width="0.6"/>
<rect x="85.2505" y="175.789" width="42" height="42" stroke="#B2ADBE" stroke-width="0.6"/>
<rect x="127.25" y="175.789" width="42" height="42" stroke="#B2ADBE" stroke-width="0.6"/>
<rect x="169.25" y="175.789" width="42" height="42" stroke="#B2ADBE" stroke-width="0.6"/>
<rect x="211.25" y="175.789" width="42" height="42" stroke="#B2ADBE" stroke-width="0.6"/>
<rect x="253.25" y="175.789" width="42" height="42" stroke="#B2ADBE" stroke-width="0.6"/>
<rect x="295.25" y="175.789" width="42" height="42" stroke="#B2ADBE" stroke-width="0.6"/>
<rect x="337.25" y="175.789" width="42" height="42" stroke="#B2ADBE" stroke-width="0.6"/>
<rect x="379.25" y="175.789" width="42" height="42" stroke="#B2ADBE" stroke-width="0.6"/>
<rect x="421.25" y="175.789" width="42" height="42" stroke="#B2ADBE" stroke-width="0.6"/>
<rect x="463.25" y="175.789" width="42" height="42" stroke="#B2ADBE" stroke-width="0.6"/>
<rect x="505.25" y="175.789" width="42" height="42" stroke="#B2ADBE" stroke-width="0.6"/>
<rect x="547.25" y="175.789" width="42" height="42" stroke="#B2ADBE" stroke-width="0.6"/>
<rect x="589.25" y="175.789" width="42" height="42" stroke="#B2ADBE" stroke-width="0.6"/>
<rect x="631.25" y="175.789" width="42" height="42" stroke="#B2ADBE" stroke-width="0.6"/>
<rect x="673.25" y="175.789" width="42" height="42" stroke="#B2ADBE" stroke-width="0.6"/>
<rect x="715.25" y="175.789" width="42" height="42" stroke="#B2ADBE" stroke-width="0.6"/>
<rect x="757.25" y="175.789" width="42" height="42" stroke="#B2ADBE" stroke-width="0.6"/>
<rect x="799.25" y="175.789" width="42" height="42" stroke="#B2ADBE" stroke-width="0.6"/>
<rect x="841.25" y="175.789" width="42" height="42" stroke="#B2ADBE" stroke-width="0.6"/>
<rect x="883.25" y="175.789" width="42" height="42" stroke="#B2ADBE" stroke-width="0.6"/>
<rect x="925.25" y="175.789" width="42" height="42" stroke="#B2ADBE" stroke-width="0.6"/>
<rect x="967.25" y="175.789" width="42" height="42" stroke="#B2ADBE" stroke-width="0.6"/>
<rect x="1009.25" y="175.789" width="42" height="42" stroke="#B2ADBE" stroke-width="0.6"/>
<rect x="1051.25" y="175.789" width="42" height="42" stroke="#B2ADBE" stroke-width="0.6"/>
<rect x="1093.25" y="175.789" width="42" height="42" stroke="#B2ADBE" stroke-width="0.6"/>
<rect x="-40.7495" y="217.789" width="42" height="42" stroke="#B2ADBE" stroke-width="0.6"/>
<rect x="1.25049" y="217.789" width="42" height="42" stroke="#B2ADBE" stroke-width="0.6"/>
<rect x="43.2505" y="217.789" width="42" height="42" stroke="#B2ADBE" stroke-width="0.6"/>
<rect x="85.2505" y="217.789" width="42" height="42" stroke="#B2ADBE" stroke-width="0.6"/>
<rect x="127.25" y="217.789" width="42" height="42" stroke="#B2ADBE" stroke-width="0.6"/>
<rect x="169.25" y="217.789" width="42" height="42" stroke="#B2ADBE" stroke-width="0.6"/>
<rect x="211.25" y="217.789" width="42" height="42" stroke="#B2ADBE" stroke-width="0.6"/>
<rect x="253.25" y="217.789" width="42" height="42" stroke="#B2ADBE" stroke-width="0.6"/>
<rect x="295.25" y="217.789" width="42" height="42" stroke="#B2ADBE" stroke-width="0.6"/>
<rect x="337.25" y="217.789" width="42" height="42" stroke="#B2ADBE" stroke-width="0.6"/>
<rect x="379.25" y="217.789" width="42" height="42" stroke="#B2ADBE" stroke-width="0.6"/>
<rect x="421.25" y="217.789" width="42" height="42" stroke="#B2ADBE" stroke-width="0.6"/>
<rect x="463.25" y="217.789" width="42" height="42" stroke="#B2ADBE" stroke-width="0.6"/>
<rect x="505.25" y="217.789" width="42" height="42" stroke="#B2ADBE" stroke-width="0.6"/>
<rect x="547.25" y="217.789" width="42" height="42" stroke="#B2ADBE" stroke-width="0.6"/>
<rect x="589.25" y="217.789" width="42" height="42" stroke="#B2ADBE" stroke-width="0.6"/>
<rect x="631.25" y="217.789" width="42" height="42" stroke="#B2ADBE" stroke-width="0.6"/>
<rect x="715.25" y="217.789" width="42" height="42" stroke="#B2ADBE" stroke-width="0.6"/>
<rect x="757.25" y="217.789" width="42" height="42" stroke="#B2ADBE" stroke-width="0.6"/>
<rect x="799.25" y="217.789" width="42" height="42" stroke="#B2ADBE" stroke-width="0.6"/>
<rect x="841.25" y="217.789" width="42" height="42" stroke="#B2ADBE" stroke-width="0.6"/>
<rect x="883.25" y="217.789" width="42" height="42" stroke="#B2ADBE" stroke-width="0.6"/>
<rect x="925.25" y="217.789" width="42" height="42" stroke="#B2ADBE" stroke-width="0.6"/>
<rect x="967.25" y="217.789" width="42" height="42" stroke="#B2ADBE" stroke-width="0.6"/>
<rect x="1009.25" y="217.789" width="42" height="42" stroke="#B2ADBE" stroke-width="0.6"/>
<rect x="1051.25" y="217.789" width="42" height="42" stroke="#B2ADBE" stroke-width="0.6"/>
<rect x="1093.25" y="217.789" width="42" height="42" stroke="#B2ADBE" stroke-width="0.6"/>
<rect x="-40.7495" y="259.789" width="42" height="42" stroke="#B2ADBE" stroke-width="0.6"/>
<rect x="1.25049" y="259.789" width="42" height="42" stroke="#B2ADBE" stroke-width="0.6"/>
<rect x="43.2505" y="259.789" width="42" height="42" stroke="#B2ADBE" stroke-width="0.6"/>
<rect x="85.2505" y="259.789" width="42" height="42" stroke="#B2ADBE" stroke-width="0.6"/>
<rect x="127.25" y="259.789" width="42" height="42" stroke="#B2ADBE" stroke-width="0.6"/>
<rect x="169.25" y="259.789" width="42" height="42" stroke="#B2ADBE" stroke-width="0.6"/>
<rect x="211.25" y="259.789" width="42" height="42" stroke="#B2ADBE" stroke-width="0.6"/>
<rect x="295.25" y="259.789" width="42" height="42" stroke="#B2ADBE" stroke-width="0.6"/>
<rect x="337.25" y="259.789" width="42" height="42" stroke="#B2ADBE" stroke-width="0.6"/>
<rect x="379.25" y="259.789" width="42" height="42" stroke="#B2ADBE" stroke-width="0.6"/>
<rect x="421.25" y="259.789" width="42" height="42" stroke="#B2ADBE" stroke-width="0.6"/>
<rect x="463.25" y="259.789" width="42" height="42" stroke="#B2ADBE" stroke-width="0.6"/>
<rect x="505.25" y="259.789" width="42" height="42" stroke="#B2ADBE" stroke-width="0.6"/>
<rect x="547.25" y="259.789" width="42" height="42" stroke="#B2ADBE" stroke-width="0.6"/>
<rect x="589.25" y="259.789" width="42" height="42" stroke="#B2ADBE" stroke-width="0.6"/>
<rect x="631.25" y="259.789" width="42" height="42" stroke="#B2ADBE" stroke-width="0.6"/>
<rect x="673.25" y="259.789" width="42" height="42" stroke="#B2ADBE" stroke-width="0.6"/>
<rect x="715.25" y="259.789" width="42" height="42" stroke="#B2ADBE" stroke-width="0.6"/>
<rect x="757.25" y="259.789" width="42" height="42" stroke="#B2ADBE" stroke-width="0.6"/>
<rect x="799.25" y="259.789" width="42" height="42" stroke="#B2ADBE" stroke-width="0.6"/>
<rect x="841.25" y="259.789" width="42" height="42" stroke="#B2ADBE" stroke-width="0.6"/>
<rect x="883.25" y="259.789" width="42" height="42" stroke="#B2ADBE" stroke-width="0.6"/>
<rect x="925.25" y="259.789" width="42" height="42" stroke="#B2ADBE" stroke-width="0.6"/>
<rect x="967.25" y="259.789" width="42" height="42" stroke="#B2ADBE" stroke-width="0.6"/>
<rect x="1009.25" y="259.789" width="42" height="42" stroke="#B2ADBE" stroke-width="0.6"/>
<rect x="1051.25" y="259.789" width="42" height="42" stroke="#B2ADBE" stroke-width="0.6"/>
<rect x="1093.25" y="259.789" width="42" height="42" stroke="#B2ADBE" stroke-width="0.6"/>
<rect x="-40.7495" y="301.789" width="42" height="42" stroke="#B2ADBE" stroke-width="0.6"/>
<rect x="1.25049" y="301.789" width="42" height="42" stroke="#B2ADBE" stroke-width="0.6"/>
<rect x="43.2505" y="301.789" width="42" height="42" stroke="#B2ADBE" stroke-width="0.6"/>
<rect x="85.2505" y="301.789" width="42" height="42" stroke="#B2ADBE" stroke-width="0.6"/>
<rect x="169.25" y="301.789" width="42" height="42" stroke="#B2ADBE" stroke-width="0.6"/>
<rect x="211.25" y="301.789" width="42" height="42" stroke="#B2ADBE" stroke-width="0.6"/>
<rect x="253.25" y="301.789" width="42" height="42" stroke="#B2ADBE" stroke-width="0.6"/>
<rect x="295.25" y="301.789" width="42" height="42" stroke="#B2ADBE" stroke-width="0.6"/>
<rect x="337.25" y="301.789" width="42" height="42" stroke="#B2ADBE" stroke-width="0.6"/>
<rect x="379.25" y="301.789" width="42" height="42" stroke="#B2ADBE" stroke-width="0.6"/>
<rect x="421.25" y="301.789" width="42" height="42" stroke="#B2ADBE" stroke-width="0.6"/>
<rect x="463.25" y="301.789" width="42" height="42" stroke="#B2ADBE" stroke-width="0.6"/>
<rect x="505.25" y="301.789" width="42" height="42" stroke="#B2ADBE" stroke-width="0.6"/>
<rect x="547.25" y="301.789" width="42" height="42" stroke="#B2ADBE" stroke-width="0.6"/>
<rect x="589.25" y="301.789" width="42" height="42" stroke="#B2ADBE" stroke-width="0.6"/>
<rect x="631.25" y="301.789" width="42" height="42" stroke="#B2ADBE" stroke-width="0.6"/>
<rect x="673.25" y="301.789" width="42" height="42" stroke="#B2ADBE" stroke-width="0.6"/>
<rect x="715.25" y="301.789" width="42" height="42" stroke="#B2ADBE" stroke-width="0.6"/>
<rect x="757.25" y="301.789" width="42" height="42" stroke="#B2ADBE" stroke-width="0.6"/>
<rect x="799.25" y="301.789" width="42" height="42" stroke="#B2ADBE" stroke-width="0.6"/>
<rect x="841.25" y="301.789" width="42" height="42" stroke="#B2ADBE" stroke-width="0.6"/>
<rect x="883.25" y="301.789" width="42" height="42" stroke="#B2ADBE" stroke-width="0.6"/>
<rect x="925.25" y="301.789" width="42" height="42" stroke="#B2ADBE" stroke-width="0.6"/>
<rect x="967.25" y="301.789" width="42" height="42" stroke="#B2ADBE" stroke-width="0.6"/>
<rect x="1009.25" y="301.789" width="42" height="42" stroke="#B2ADBE" stroke-width="0.6"/>
<rect x="1051.25" y="301.789" width="42" height="42" stroke="#B2ADBE" stroke-width="0.6"/>
<rect x="1093.25" y="301.789" width="42" height="42" stroke="#B2ADBE" stroke-width="0.6"/>
<rect x="-40.7495" y="343.789" width="42" height="42" stroke="#B2ADBE" stroke-width="0.6"/>
<rect x="1.25049" y="343.789" width="42" height="42" stroke="#B2ADBE" stroke-width="0.6"/>
<rect x="43.2505" y="343.789" width="42" height="42" stroke="#B2ADBE" stroke-width="0.6"/>
<rect x="85.2505" y="343.789" width="42" height="42" stroke="#B2ADBE" stroke-width="0.6"/>
<rect x="127.25" y="343.789" width="42" height="42" stroke="#B2ADBE" stroke-width="0.6"/>
<rect x="169.25" y="343.789" width="42" height="42" stroke="#B2ADBE" stroke-width="0.6"/>
<rect x="211.25" y="343.789" width="42" height="42" stroke="#B2ADBE" stroke-width="0.6"/>
<rect x="253.25" y="343.789" width="42" height="42" stroke="#B2ADBE" stroke-width="0.6"/>
<rect x="295.25" y="343.789" width="42" height="42" stroke="#B2ADBE" stroke-width="0.6"/>
<rect x="337.25" y="343.789" width="42" height="42" stroke="#B2ADBE" stroke-width="0.6"/>
<rect x="379.25" y="343.789" width="42" height="42" stroke="#B2ADBE" stroke-width="0.6"/>
<rect x="421.25" y="343.789" width="42" height="42" stroke="#B2ADBE" stroke-width="0.6"/>
<rect x="463.25" y="343.789" width="42" height="42" stroke="#B2ADBE" stroke-width="0.6"/>
<rect x="505.25" y="343.789" width="42" height="42" stroke="#B2ADBE" stroke-width="0.6"/>
<rect x="547.25" y="343.789" width="42" height="42" stroke="#B2ADBE" stroke-width="0.6"/>
<rect x="589.25" y="343.789" width="42" height="42" stroke="#B2ADBE" stroke-width="0.6"/>
<rect x="631.25" y="343.789" width="42" height="42" stroke="#B2ADBE" stroke-width="0.6"/>
<rect x="673.25" y="343.789" width="42" height="42" stroke="#B2ADBE" stroke-width="0.6"/>
<rect x="715.25" y="343.789" width="42" height="42" stroke="#B2ADBE" stroke-width="0.6"/>
<rect x="757.25" y="343.789" width="42" height="42" stroke="#B2ADBE" stroke-width="0.6"/>
<rect x="799.25" y="343.789" width="42" height="42" stroke="#B2ADBE" stroke-width="0.6"/>
<rect x="841.25" y="343.789" width="42" height="42" stroke="#B2ADBE" stroke-width="0.6"/>
<rect x="883.25" y="343.789" width="42" height="42" stroke="#B2ADBE" stroke-width="0.6"/>
<rect x="925.25" y="343.789" width="42" height="42" stroke="#B2ADBE" stroke-width="0.6"/>
<rect x="967.25" y="343.789" width="42" height="42" stroke="#B2ADBE" stroke-width="0.6"/>
<rect x="1009.25" y="343.789" width="42" height="42" stroke="#B2ADBE" stroke-width="0.6"/>
<rect x="1051.25" y="343.789" width="42" height="42" stroke="#B2ADBE" stroke-width="0.6"/>
<rect x="1093.25" y="343.789" width="42" height="42" stroke="#B2ADBE" stroke-width="0.6"/>
<rect x="-40.7495" y="385.789" width="42" height="42" stroke="#B2ADBE" stroke-width="0.6"/>
<rect x="1.25049" y="385.789" width="42" height="42" stroke="#B2ADBE" stroke-width="0.6"/>
<rect x="43.2505" y="385.789" width="42" height="42" stroke="#B2ADBE" stroke-width="0.6"/>
<rect x="85.2505" y="385.789" width="42" height="42" stroke="#B2ADBE" stroke-width="0.6"/>
<rect x="127.25" y="385.789" width="42" height="42" stroke="#B2ADBE" stroke-width="0.6"/>
<rect x="169.25" y="385.789" width="42" height="42" stroke="#B2ADBE" stroke-width="0.6"/>
<rect x="211.25" y="385.789" width="42" height="42" stroke="#B2ADBE" stroke-width="0.6"/>
<rect x="253.25" y="385.789" width="42" height="42" stroke="#B2ADBE" stroke-width="0.6"/>
<rect x="295.25" y="385.789" width="42" height="42" stroke="#B2ADBE" stroke-width="0.6"/>
<rect x="337.25" y="385.789" width="42" height="42" stroke="#B2ADBE" stroke-width="0.6"/>
<rect x="379.25" y="385.789" width="42" height="42" stroke="#B2ADBE" stroke-width="0.6"/>
<rect x="421.25" y="385.789" width="42" height="42" stroke="#B2ADBE" stroke-width="0.6"/>
<rect x="463.25" y="385.789" width="42" height="42" stroke="#B2ADBE" stroke-width="0.6"/>
<rect x="505.25" y="385.789" width="42" height="42" stroke="#B2ADBE" stroke-width="0.6"/>
<rect x="547.25" y="385.789" width="42" height="42" stroke="#B2ADBE" stroke-width="0.6"/>
<rect x="589.25" y="385.789" width="42" height="42" stroke="#B2ADBE" stroke-width="0.6"/>
<rect x="631.25" y="385.789" width="42" height="42" stroke="#B2ADBE" stroke-width="0.6"/>
<rect x="673.25" y="385.789" width="42" height="42" stroke="#B2ADBE" stroke-width="0.6"/>
<rect x="715.25" y="385.789" width="42" height="42" stroke="#B2ADBE" stroke-width="0.6"/>
<rect x="757.25" y="385.789" width="42" height="42" stroke="#B2ADBE" stroke-width="0.6"/>
<rect x="799.25" y="385.789" width="42" height="42" stroke="#B2ADBE" stroke-width="0.6"/>
<rect x="841.25" y="385.789" width="42" height="42" stroke="#B2ADBE" stroke-width="0.6"/>
<rect x="883.25" y="385.789" width="42" height="42" stroke="#B2ADBE" stroke-width="0.6"/>
<rect x="925.25" y="385.789" width="42" height="42" stroke="#B2ADBE" stroke-width="0.6"/>
<rect x="967.25" y="385.789" width="42" height="42" stroke="#B2ADBE" stroke-width="0.6"/>
<rect x="1009.25" y="385.789" width="42" height="42" stroke="#B2ADBE" stroke-width="0.6"/>
<rect x="1051.25" y="385.789" width="42" height="42" stroke="#B2ADBE" stroke-width="0.6"/>
<rect x="1093.25" y="385.789" width="42" height="42" stroke="#B2ADBE" stroke-width="0.6"/>
<rect x="379.25" y="133.789" width="42" height="42" stroke="#B2ADBE" stroke-width="0.6"/>
<rect x="337.25" y="-34.2109" width="42" height="42" fill="#FF30B7" fill-opacity="0.2" stroke="#E300BD" stroke-width="0.6"/>
<rect x="295.25" y="259.789" width="42" height="42" fill="#FFB661" fill-opacity="0.2" stroke="#FFBA33" stroke-width="0.6"/>
<rect x="673.25" y="217.789" width="42" height="42" fill="#FF30B7" fill-opacity="0.2" stroke="#E300BD" stroke-width="0.6"/>
<rect x="127.25" y="301.789" width="42" height="42" fill="#FF006A" fill-opacity="0.2" stroke="#FF006A" stroke-width="0.6"/>
<circle cx="337.25" cy="49.7891" r="2" fill="#6B6382"/>
<circle cx="505.25" cy="91.7891" r="2" fill="#6B6382"/>
<circle cx="43.2505" cy="7.78906" r="2" fill="#6B6382"/>
<circle cx="85.2505" cy="217.789" r="2" fill="#6B6382"/>
<circle cx="421.25" cy="301.789" r="2" fill="#6B6382"/>
<circle cx="715.25" cy="7.78906" r="2" fill="#6B6382"/>
<circle cx="589.25" cy="343.789" r="2" fill="#6B6382"/>
<circle cx="715.25" cy="343.789" r="2" fill="#6B6382"/>
</g>
<g opacity="0.2" filter="url(#filter0_f_7751_280216)">
<ellipse cx="263.5" cy="143" rx="240.5" ry="245" fill="#FFBA33"/>
</g>
<g opacity="0.15" filter="url(#filter1_f_7751_280216)">
<ellipse cx="1003" cy="128" rx="437" ry="369" fill="#FF006A"/>
</g>
<g opacity="0.15" filter="url(#filter2_f_7751_280216)">
<ellipse cx="601.5" cy="23" rx="315.5" ry="280" fill="#E300BD"/>
</g>
</g>
</g>
<defs>
<filter id="filter0_f_7751_280216" x="-174" y="-299" width="875" height="884" filterUnits="userSpaceOnUse" color-interpolation-filters="sRGB">
<feFlood flood-opacity="0" result="BackgroundImageFix"/>
<feBlend mode="normal" in="SourceGraphic" in2="BackgroundImageFix" result="shape"/>
<feGaussianBlur stdDeviation="98.5" result="effect1_foregroundBlur_7751_280216"/>
</filter>
<filter id="filter1_f_7751_280216" x="369" y="-438" width="1268" height="1132" filterUnits="userSpaceOnUse" color-interpolation-filters="sRGB">
<feFlood flood-opacity="0" result="BackgroundImageFix"/>
<feBlend mode="normal" in="SourceGraphic" in2="BackgroundImageFix" result="shape"/>
<feGaussianBlur stdDeviation="98.5" result="effect1_foregroundBlur_7751_280216"/>
</filter>
<filter id="filter2_f_7751_280216" x="89" y="-454" width="1025" height="954" filterUnits="userSpaceOnUse" color-interpolation-filters="sRGB">
<feFlood flood-opacity="0" result="BackgroundImageFix"/>
<feBlend mode="normal" in="SourceGraphic" in2="BackgroundImageFix" result="shape"/>
<feGaussianBlur stdDeviation="98.5" result="effect1_foregroundBlur_7751_280216"/>
</filter>
<radialGradient id="paint0_radial_7751_280216" cx="0" cy="0" r="1" gradientUnits="userSpaceOnUse" gradientTransform="translate(521 246.153) rotate(90) scale(377.763 855)">
<stop stop-color="#D9D9D9" stop-opacity="0.4"/>
<stop offset="1" stop-color="#D9D9D9" stop-opacity="0"/>
</radialGradient>
<clipPath id="clip0_7751_280216">
<path d="M0 5.99997C0 2.68627 2.68629 0 6 0H1506C1509.31 0 1512 2.68629 1512 6V976C1512 979.314 1509.31 982 1506 982H5.99998C2.68627 982 0 979.314 0 976V5.99997Z" fill="white"/>
</clipPath>
<clipPath id="clip1_7751_280216">
<rect width="1988" height="1216" fill="white" transform="translate(-280 -175)"/>
</clipPath>
</defs>
</svg>
