<svg width="72" height="20" viewBox="0 0 72 20" fill="none" xmlns="http://www.w3.org/2000/svg">
<g id="mongo-db-b0ca427d409133f6e3f010544e44ddf6.svg" clip-path="url(#clip0_6850_192872)">
<g id="Vector">
<path d="M5.82359 1.82789C5.32972 1.23735 4.85935 0.627546 4.41359 -0.000105161C4.41071 -0.00315591 4.40724 -0.00558639 4.40339 -0.00724758C4.39953 -0.00890876 4.39538 -0.00976563 4.39119 -0.00976562C4.38699 -0.00976562 4.38284 -0.00890876 4.37899 -0.00724758C4.37514 -0.00558639 4.37167 -0.00315591 4.36879 -0.000105161C3.92302 0.627542 3.45266 1.23735 2.95879 1.82789C-2.98201 9.40469 3.89479 14.5179 3.89479 14.5179L3.95199 14.5563C4.00359 15.3455 4.13159 16.4811 4.13159 16.4811H4.64439C4.64439 16.4811 4.77239 15.3519 4.82359 14.5563L4.88159 14.5115C4.88799 14.5115 11.7644 9.40469 5.82359 1.82789ZM4.38759 14.4023C4.38759 14.4023 4.08039 14.1391 3.99719 14.0043V13.9919L4.36879 5.74149C4.36879 5.71589 4.40719 5.71589 4.40719 5.74149L4.77919 13.9919V14.0043C4.69519 14.1391 4.38759 14.4023 4.38759 14.4023Z" fill="url(#paint0_linear_6850_192872)"/>
<path d="M5.82359 1.82789C5.32972 1.23735 4.85935 0.627546 4.41359 -0.000105161C4.41071 -0.00315591 4.40724 -0.00558639 4.40339 -0.00724758C4.39953 -0.00890876 4.39538 -0.00976563 4.39119 -0.00976562C4.38699 -0.00976562 4.38284 -0.00890876 4.37899 -0.00724758C4.37514 -0.00558639 4.37167 -0.00315591 4.36879 -0.000105161C3.92302 0.627542 3.45266 1.23735 2.95879 1.82789C-2.98201 9.40469 3.89479 14.5179 3.89479 14.5179L3.95199 14.5563C4.00359 15.3455 4.13159 16.4811 4.13159 16.4811H4.64439C4.64439 16.4811 4.77239 15.3519 4.82359 14.5563L4.88159 14.5115C4.88799 14.5115 11.7644 9.40469 5.82359 1.82789ZM4.38759 14.4023C4.38759 14.4023 4.08039 14.1391 3.99719 14.0043V13.9919L4.36879 5.74149C4.36879 5.71589 4.40719 5.71589 4.40719 5.74149L4.77919 13.9919V14.0043C4.69519 14.1391 4.38759 14.4023 4.38759 14.4023Z" fill="url(#paint1_linear_6850_192872)"/>
</g>
<g id="Vector_2">
<path d="M17.2593 12.6692L14.3942 5.72037L14.3873 5.70117H12.1582V6.16837H12.5182C12.627 6.16837 12.7302 6.21317 12.807 6.28997C12.8842 6.36677 12.9229 6.46917 12.9229 6.57797L12.8586 13.5712C12.8586 13.7888 12.6786 13.968 12.4602 13.9744L12.0938 13.9808V14.4416H14.2658V13.9808L14.0406 13.9744C13.9349 13.9716 13.8345 13.9281 13.7602 13.8529C13.686 13.7778 13.6437 13.6768 13.6422 13.5712V6.98077L16.7646 14.4416C16.8098 14.5504 16.9126 14.6208 17.0282 14.6208C17.1442 14.6208 17.2466 14.5504 17.2918 14.4416L20.3438 7.14717L20.3882 13.5712C20.3882 13.7952 20.2081 13.9744 19.9838 13.9808H19.7522V14.4416H22.2962V13.9808H21.9494C21.731 13.9808 21.5514 13.7952 21.545 13.5776L21.5254 6.58437C21.5254 6.36037 21.7053 6.18117 21.9237 6.17477L22.2966 6.16837V5.70117H20.1246L17.2593 12.6692Z" fill="url(#paint2_linear_6850_192872)"/>
<path d="M17.2593 12.6692L14.3942 5.72037L14.3873 5.70117H12.1582V6.16837H12.5182C12.627 6.16837 12.7302 6.21317 12.807 6.28997C12.8842 6.36677 12.9229 6.46917 12.9229 6.57797L12.8586 13.5712C12.8586 13.7888 12.6786 13.968 12.4602 13.9744L12.0938 13.9808V14.4416H14.2658V13.9808L14.0406 13.9744C13.9349 13.9716 13.8345 13.9281 13.7602 13.8529C13.686 13.7778 13.6437 13.6768 13.6422 13.5712V6.98077L16.7646 14.4416C16.8098 14.5504 16.9126 14.6208 17.0282 14.6208C17.1442 14.6208 17.2466 14.5504 17.2918 14.4416L20.3438 7.14717L20.3882 13.5712C20.3882 13.7952 20.2081 13.9744 19.9838 13.9808H19.7522V14.4416H22.2962V13.9808H21.9494C21.731 13.9808 21.5514 13.7952 21.545 13.5776L21.5254 6.58437C21.5254 6.36037 21.7053 6.18117 21.9237 6.17477L22.2966 6.16837V5.70117H20.1246L17.2593 12.6692Z" fill="url(#paint3_linear_6850_192872)"/>
</g>
<g id="Vector_3">
<path d="M37.2366 13.9116C37.2001 13.8741 37.1717 13.8296 37.1528 13.7808C37.134 13.732 37.1252 13.6799 37.127 13.6276V10.1712C37.127 9.5132 36.9338 8.9972 36.547 8.6296C36.167 8.2624 35.639 8.0752 34.9822 8.0752C34.061 8.0752 33.333 8.4492 32.8242 9.1844C32.8178 9.1972 32.7986 9.2036 32.779 9.2036C32.7598 9.2036 32.747 9.1908 32.747 9.17159L32.5086 8.2492H32.109L31.085 8.836V9.1584H31.349C31.4714 9.1584 31.5746 9.1908 31.6454 9.2552C31.7162 9.32 31.755 9.4168 31.755 9.552V13.6212C31.755 13.7372 31.7162 13.834 31.6454 13.9052C31.6079 13.9416 31.5635 13.9701 31.5147 13.9889C31.466 14.0078 31.414 14.0166 31.3618 14.0148H31.1042V14.4856H33.4618V14.0144H33.2042C33.1519 14.0162 33.0999 14.0074 33.0512 13.9885C33.0024 13.9697 32.958 13.9412 32.9206 13.9048C32.8842 13.8672 32.8558 13.8227 32.8371 13.7739C32.8183 13.7251 32.8096 13.673 32.8114 13.6208V10.9384C32.8114 10.5968 32.8886 10.2548 33.0302 9.9196C33.1739 9.59383 33.4005 9.3114 33.6874 9.1004C33.9774 8.8876 34.325 8.7844 34.7246 8.7844C35.1754 8.7844 35.5166 8.9264 35.7294 9.21C35.9418 9.494 36.0514 9.8616 36.0514 10.3V13.628C36.0514 13.744 36.0126 13.8404 35.9418 13.9116C35.9043 13.9479 35.86 13.9764 35.8113 13.9952C35.7627 14.0141 35.7107 14.0229 35.6586 14.0212H35.4006V14.492H37.7578V14.0212H37.5002C37.451 14.0219 37.4022 14.0126 37.3568 13.9937C37.3114 13.9749 37.2708 13.9469 37.2366 13.9116Z" fill="url(#paint4_linear_6850_192872)"/>
<path d="M37.2366 13.9116C37.2001 13.8741 37.1717 13.8296 37.1528 13.7808C37.134 13.732 37.1252 13.6799 37.127 13.6276V10.1712C37.127 9.5132 36.9338 8.9972 36.547 8.6296C36.167 8.2624 35.639 8.0752 34.9822 8.0752C34.061 8.0752 33.333 8.4492 32.8242 9.1844C32.8178 9.1972 32.7986 9.2036 32.779 9.2036C32.7598 9.2036 32.747 9.1908 32.747 9.17159L32.5086 8.2492H32.109L31.085 8.836V9.1584H31.349C31.4714 9.1584 31.5746 9.1908 31.6454 9.2552C31.7162 9.32 31.755 9.4168 31.755 9.552V13.6212C31.755 13.7372 31.7162 13.834 31.6454 13.9052C31.6079 13.9416 31.5635 13.9701 31.5147 13.9889C31.466 14.0078 31.414 14.0166 31.3618 14.0148H31.1042V14.4856H33.4618V14.0144H33.2042C33.1519 14.0162 33.0999 14.0074 33.0512 13.9885C33.0024 13.9697 32.958 13.9412 32.9206 13.9048C32.8842 13.8672 32.8558 13.8227 32.8371 13.7739C32.8183 13.7251 32.8096 13.673 32.8114 13.6208V10.9384C32.8114 10.5968 32.8886 10.2548 33.0302 9.9196C33.1739 9.59383 33.4005 9.3114 33.6874 9.1004C33.9774 8.8876 34.325 8.7844 34.7246 8.7844C35.1754 8.7844 35.5166 8.9264 35.7294 9.21C35.9418 9.494 36.0514 9.8616 36.0514 10.3V13.628C36.0514 13.744 36.0126 13.8404 35.9418 13.9116C35.9043 13.9479 35.86 13.9764 35.8113 13.9952C35.7627 14.0141 35.7107 14.0229 35.6586 14.0212H35.4006V14.492H37.7578V14.0212H37.5002C37.451 14.0219 37.4022 14.0126 37.3568 13.9937C37.3114 13.9749 37.2708 13.9469 37.2366 13.9116Z" fill="url(#paint5_linear_6850_192872)"/>
</g>
<g id="Vector_4">
<path d="M58.7767 6.22837C58.1251 5.88117 57.3967 5.70117 56.6107 5.70117H53.5439V6.17037H53.8443C53.9595 6.17037 54.0615 6.21517 54.1639 6.31837C54.2595 6.41437 54.3107 6.52397 54.3107 6.63957V13.554C54.3107 13.67 54.2595 13.7788 54.1639 13.8752C54.0679 13.9716 53.9595 14.0232 53.8443 14.0232H53.5439V14.4924H56.6107C57.3967 14.4924 58.1251 14.3124 58.7767 13.9652C59.4283 13.6184 59.9588 13.104 60.3419 12.4488C60.7252 11.7932 60.9232 11.0028 60.9232 10.1032C60.9232 9.20357 60.7252 8.41957 60.3419 7.75757C59.9524 7.08957 59.4283 6.57517 58.7767 6.22837ZM59.6904 10.0904C59.6904 10.9128 59.5436 11.6068 59.256 12.166C58.9684 12.7252 58.5851 13.1428 58.1123 13.4128C57.6395 13.6824 57.1155 13.8176 56.5531 13.8176H55.9335C55.8187 13.8176 55.7163 13.7724 55.6139 13.6696C55.5183 13.5736 55.4672 13.464 55.4672 13.3484V6.83237C55.4672 6.71637 55.5119 6.61397 55.6139 6.51077C55.7099 6.41477 55.8187 6.36317 55.9335 6.36317H56.5531C57.1155 6.36317 57.6395 6.49797 58.1123 6.76797C58.5851 7.03797 58.9684 7.45597 59.256 8.01477C59.5436 8.57357 59.6904 9.26797 59.6904 10.0904Z" fill="url(#paint6_linear_6850_192872)"/>
<path d="M58.7767 6.22837C58.1251 5.88117 57.3967 5.70117 56.6107 5.70117H53.5439V6.17037H53.8443C53.9595 6.17037 54.0615 6.21517 54.1639 6.31837C54.2595 6.41437 54.3107 6.52397 54.3107 6.63957V13.554C54.3107 13.67 54.2595 13.7788 54.1639 13.8752C54.0679 13.9716 53.9595 14.0232 53.8443 14.0232H53.5439V14.4924H56.6107C57.3967 14.4924 58.1251 14.3124 58.7767 13.9652C59.4283 13.6184 59.9588 13.104 60.3419 12.4488C60.7252 11.7932 60.9232 11.0028 60.9232 10.1032C60.9232 9.20357 60.7252 8.41957 60.3419 7.75757C59.9524 7.08957 59.4283 6.57517 58.7767 6.22837ZM59.6904 10.0904C59.6904 10.9128 59.5436 11.6068 59.256 12.166C58.9684 12.7252 58.5851 13.1428 58.1123 13.4128C57.6395 13.6824 57.1155 13.8176 56.5531 13.8176H55.9335C55.8187 13.8176 55.7163 13.7724 55.6139 13.6696C55.5183 13.5736 55.4672 13.464 55.4672 13.3484V6.83237C55.4672 6.71637 55.5119 6.61397 55.6139 6.51077C55.7099 6.41477 55.8187 6.36317 55.9335 6.36317H56.5531C57.1155 6.36317 57.6395 6.49797 58.1123 6.76797C58.5851 7.03797 58.9684 7.45597 59.256 8.01477C59.5436 8.57357 59.6904 9.26797 59.6904 10.0904Z" fill="url(#paint7_linear_6850_192872)"/>
</g>
<g id="Vector_5">
<path d="M68.1746 10.5596C67.891 10.2316 67.3438 9.95557 66.7002 9.80757C67.589 9.36437 68.0458 8.74077 68.0458 7.93757C68.0458 7.50077 67.9302 7.10877 67.6982 6.77437C67.4662 6.44037 67.1378 6.17037 66.7194 5.98397C66.3006 5.79757 65.811 5.70117 65.257 5.70117H61.7858V6.17037H62.0626C62.1786 6.17037 62.2818 6.21517 62.3846 6.31837C62.4814 6.41437 62.533 6.52397 62.533 6.63957V13.554C62.533 13.67 62.4814 13.7788 62.3846 13.8752C62.2882 13.9716 62.1786 14.0232 62.0626 14.0232H61.7598V14.4924H65.5278C66.101 14.4924 66.6354 14.396 67.1186 14.2032C67.6018 14.0104 67.9882 13.7272 68.2654 13.3552C68.5482 12.982 68.6902 12.526 68.6902 11.9992C68.6838 11.4332 68.5162 10.9584 68.1746 10.5596ZM63.853 13.676C63.7566 13.58 63.705 13.4704 63.705 13.3548V10.2508H65.4958C66.1266 10.2508 66.6098 10.4116 66.9446 10.7328C67.2798 11.0544 67.447 11.472 67.447 11.986C67.4453 12.2947 67.3704 12.5987 67.2282 12.8728C67.0802 13.1556 66.8606 13.3808 66.565 13.554C66.2746 13.7276 65.9142 13.8176 65.4958 13.8176H64.175C64.0594 13.824 63.9562 13.7788 63.853 13.676ZM63.7114 9.58917V6.83237C63.7114 6.71637 63.7566 6.61397 63.8594 6.51077C63.9562 6.41477 64.0658 6.36317 64.1818 6.36317H65.0318C65.6434 6.36317 66.0946 6.51757 66.3782 6.81317C66.661 7.11517 66.803 7.50077 66.803 7.97597C66.803 8.46437 66.6674 8.85637 66.4038 9.15197C66.1394 9.44117 65.7402 9.58917 65.2122 9.58917H63.7114Z" fill="url(#paint8_linear_6850_192872)"/>
<path d="M68.1746 10.5596C67.891 10.2316 67.3438 9.95557 66.7002 9.80757C67.589 9.36437 68.0458 8.74077 68.0458 7.93757C68.0458 7.50077 67.9302 7.10877 67.6982 6.77437C67.4662 6.44037 67.1378 6.17037 66.7194 5.98397C66.3006 5.79757 65.811 5.70117 65.257 5.70117H61.7858V6.17037H62.0626C62.1786 6.17037 62.2818 6.21517 62.3846 6.31837C62.4814 6.41437 62.533 6.52397 62.533 6.63957V13.554C62.533 13.67 62.4814 13.7788 62.3846 13.8752C62.2882 13.9716 62.1786 14.0232 62.0626 14.0232H61.7598V14.4924H65.5278C66.101 14.4924 66.6354 14.396 67.1186 14.2032C67.6018 14.0104 67.9882 13.7272 68.2654 13.3552C68.5482 12.982 68.6902 12.526 68.6902 11.9992C68.6838 11.4332 68.5162 10.9584 68.1746 10.5596ZM63.853 13.676C63.7566 13.58 63.705 13.4704 63.705 13.3548V10.2508H65.4958C66.1266 10.2508 66.6098 10.4116 66.9446 10.7328C67.2798 11.0544 67.447 11.472 67.447 11.986C67.4453 12.2947 67.3704 12.5987 67.2282 12.8728C67.0802 13.1556 66.8606 13.3808 66.565 13.554C66.2746 13.7276 65.9142 13.8176 65.4958 13.8176H64.175C64.0594 13.824 63.9562 13.7788 63.853 13.676ZM63.7114 9.58917V6.83237C63.7114 6.71637 63.7566 6.61397 63.8594 6.51077C63.9562 6.41477 64.0658 6.36317 64.1818 6.36317H65.0318C65.6434 6.36317 66.0946 6.51757 66.3782 6.81317C66.661 7.11517 66.803 7.50077 66.803 7.97597C66.803 8.46437 66.6674 8.85637 66.4038 9.15197C66.1394 9.44117 65.7402 9.58917 65.2122 9.58917H63.7114Z" fill="url(#paint9_linear_6850_192872)"/>
</g>
<g id="Vector_6">
<path d="M28.2616 8.48489C27.7597 8.212 27.1968 8.07106 26.6256 8.07529C26.0308 8.07529 25.4748 8.20969 24.9892 8.48489C24.4972 8.75409 24.1068 9.14489 23.8192 9.63769C23.532 10.1309 23.3848 10.7073 23.3848 11.3477C23.3848 11.9881 23.5316 12.5645 23.8196 13.0577C24.1068 13.5509 24.4968 13.9417 24.9892 14.2105C25.491 14.4835 26.0539 14.6246 26.6252 14.6205C27.2196 14.6205 27.7756 14.4857 28.2612 14.2105C28.7536 13.9417 29.1436 13.5505 29.4312 13.0577C29.7188 12.5645 29.8656 11.9881 29.8656 11.3477C29.8656 10.7077 29.7188 10.1309 29.4312 9.63769C29.1432 9.13849 28.7536 8.75369 28.2616 8.48489ZM28.7344 11.3477C28.7344 12.1357 28.5424 12.7757 28.1592 13.2369C27.782 13.6981 27.2644 13.9349 26.6252 13.9349C25.986 13.9349 25.4684 13.6981 25.0912 13.2369C24.7076 12.7761 24.516 12.1357 24.516 11.3477C24.516 10.5601 24.708 9.91969 25.0912 9.45849C25.4684 8.99729 25.986 8.76049 26.6252 8.76049C27.2644 8.76049 27.782 8.99729 28.1592 9.45849C28.5428 9.91969 28.7344 10.5537 28.7344 11.3477Z" fill="url(#paint10_linear_6850_192872)"/>
<path d="M28.2616 8.48489C27.7597 8.212 27.1968 8.07106 26.6256 8.07529C26.0308 8.07529 25.4748 8.20969 24.9892 8.48489C24.4972 8.75409 24.1068 9.14489 23.8192 9.63769C23.532 10.1309 23.3848 10.7073 23.3848 11.3477C23.3848 11.9881 23.5316 12.5645 23.8196 13.0577C24.1068 13.5509 24.4968 13.9417 24.9892 14.2105C25.491 14.4835 26.0539 14.6246 26.6252 14.6205C27.2196 14.6205 27.7756 14.4857 28.2612 14.2105C28.7536 13.9417 29.1436 13.5505 29.4312 13.0577C29.7188 12.5645 29.8656 11.9881 29.8656 11.3477C29.8656 10.7077 29.7188 10.1309 29.4312 9.63769C29.1432 9.13849 28.7536 8.75369 28.2616 8.48489ZM28.7344 11.3477C28.7344 12.1357 28.5424 12.7757 28.1592 13.2369C27.782 13.6981 27.2644 13.9349 26.6252 13.9349C25.986 13.9349 25.4684 13.6981 25.0912 13.2369C24.7076 12.7761 24.516 12.1357 24.516 11.3477C24.516 10.5601 24.708 9.91969 25.0912 9.45849C25.4684 8.99729 25.986 8.76049 26.6252 8.76049C27.2644 8.76049 27.782 8.99729 28.1592 9.45849C28.5428 9.91969 28.7344 10.5537 28.7344 11.3477Z" fill="url(#paint11_linear_6850_192872)"/>
</g>
<g id="Vector_7">
<path d="M50.9145 8.48489C50.4127 8.21195 49.8497 8.07101 49.2785 8.07529C48.6841 8.07529 48.1281 8.20969 47.6421 8.48489C47.1501 8.75409 46.7601 9.14489 46.4725 9.63769C46.1849 10.1309 46.0381 10.7073 46.0381 11.3477C46.0381 11.9881 46.1849 12.5645 46.4725 13.0577C46.7601 13.5509 47.1501 13.9417 47.6421 14.2105C48.144 14.4835 48.7071 14.6246 49.2785 14.6205C49.8729 14.6205 50.4289 14.4857 50.9145 14.2105C51.4069 13.9417 51.7965 13.5505 52.0841 13.0577C52.3717 12.5645 52.5189 11.9881 52.5189 11.3477C52.5189 10.7077 52.3717 10.1309 52.0841 9.63769C51.8082 9.15289 51.4033 8.7536 50.9145 8.48489ZM51.3877 11.3477C51.3877 12.1357 51.1957 12.7757 50.8125 13.2369C50.4353 13.6981 49.9177 13.9349 49.2785 13.9349C48.6393 13.9349 48.1217 13.6981 47.7445 13.2369C47.3609 12.7761 47.1693 12.1357 47.1693 11.3477C47.1693 10.5537 47.3609 9.91969 47.7445 9.45849C48.1217 8.99729 48.6393 8.76049 49.2785 8.76049C49.9177 8.76049 50.4353 8.99729 50.8125 9.45849C51.1893 9.91969 51.3877 10.5537 51.3877 11.3477Z" fill="url(#paint12_linear_6850_192872)"/>
<path d="M50.9145 8.48489C50.4127 8.21195 49.8497 8.07101 49.2785 8.07529C48.6841 8.07529 48.1281 8.20969 47.6421 8.48489C47.1501 8.75409 46.7601 9.14489 46.4725 9.63769C46.1849 10.1309 46.0381 10.7073 46.0381 11.3477C46.0381 11.9881 46.1849 12.5645 46.4725 13.0577C46.7601 13.5509 47.1501 13.9417 47.6421 14.2105C48.144 14.4835 48.7071 14.6246 49.2785 14.6205C49.8729 14.6205 50.4289 14.4857 50.9145 14.2105C51.4069 13.9417 51.7965 13.5505 52.0841 13.0577C52.3717 12.5645 52.5189 11.9881 52.5189 11.3477C52.5189 10.7077 52.3717 10.1309 52.0841 9.63769C51.8082 9.15289 51.4033 8.7536 50.9145 8.48489ZM51.3877 11.3477C51.3877 12.1357 51.1957 12.7757 50.8125 13.2369C50.4353 13.6981 49.9177 13.9349 49.2785 13.9349C48.6393 13.9349 48.1217 13.6981 47.7445 13.2369C47.3609 12.7761 47.1693 12.1357 47.1693 11.3477C47.1693 10.5537 47.3609 9.91969 47.7445 9.45849C48.1217 8.99729 48.6393 8.76049 49.2785 8.76049C49.9177 8.76049 50.4353 8.99729 50.8125 9.45849C51.1893 9.91969 51.3877 10.5537 51.3877 11.3477Z" fill="url(#paint13_linear_6850_192872)"/>
</g>
<g id="Vector_8">
<path d="M41.7765 8.07521C41.2617 8.07521 40.7917 8.18441 40.3669 8.40321C39.9421 8.62201 39.6073 8.91801 39.3693 9.29761C39.1325 9.66592 39.0073 10.0949 39.0089 10.5328C39.0089 10.9316 39.0989 11.2984 39.2857 11.6264C39.4683 11.9433 39.7188 12.2159 40.0193 12.4244L39.0989 13.6724C39.0436 13.7475 39.0102 13.8365 39.0024 13.9295C38.9947 14.0224 39.0128 14.1157 39.0548 14.199C39.0968 14.2823 39.1611 14.3523 39.2404 14.4012C39.3198 14.4502 39.4112 14.4762 39.5045 14.4764H39.7685C39.5109 14.6504 39.3045 14.8564 39.1633 15.1004C38.9957 15.3772 38.9121 15.6668 38.9121 15.9628C38.9121 16.516 39.1569 16.9728 39.6397 17.314C40.1157 17.6548 40.7853 17.8288 41.6285 17.8288C42.2145 17.8288 42.7741 17.732 43.2829 17.5456C43.7977 17.3588 44.2161 17.0824 44.5253 16.722C44.8405 16.362 45.0013 15.9244 45.0013 15.4224C45.0013 14.8948 44.8085 14.5216 44.3577 14.1616C43.9717 13.8592 43.3665 13.6984 42.6133 13.6984H40.0385C40.0321 13.6984 40.0257 13.6916 40.0257 13.6916C40.0257 13.6916 40.0193 13.6788 40.0257 13.6724L40.6953 12.7716C40.8753 12.8556 41.0429 12.9068 41.1909 12.9388C41.3453 12.9712 41.5193 12.984 41.7121 12.984C42.2529 12.984 42.7421 12.8748 43.1669 12.656C43.5917 12.4372 43.9329 12.1412 44.1777 11.7616C44.4192 11.3951 44.5469 10.9653 44.5445 10.5264C44.5445 10.0504 44.3129 9.18161 43.6817 8.73801C43.6817 8.73121 43.6885 8.73121 43.6885 8.73121L45.0721 8.88561V8.24881H42.8581C42.5093 8.13283 42.1441 8.0742 41.7765 8.07521ZM42.5489 12.1028C42.3114 12.2309 42.0463 12.2993 41.7765 12.302C41.3453 12.302 40.9657 12.1476 40.6437 11.8452C40.3217 11.5428 40.1609 11.0988 40.1609 10.5332C40.1609 9.96681 40.3217 9.52281 40.6437 9.22041C40.9657 8.91801 41.3453 8.76361 41.7765 8.76361C42.0469 8.76361 42.3045 8.82761 42.5489 8.96281C42.7937 9.09161 42.9933 9.29081 43.1541 9.55481C43.3085 9.81881 43.3921 10.1468 43.3921 10.5328C43.3921 10.9252 43.3149 11.2532 43.1541 11.5108C43.0105 11.7599 42.8011 11.9647 42.5489 12.1028ZM40.8045 14.4704H42.5489C43.0317 14.4704 43.3409 14.5664 43.5469 14.7728C43.7529 14.9784 43.8557 15.2552 43.8557 15.5768C43.8557 16.0464 43.6689 16.4328 43.2957 16.722C42.9225 17.0116 42.4201 17.1596 41.8025 17.1596C41.2617 17.1596 40.8109 17.0372 40.4829 16.8056C40.1545 16.574 39.9869 16.2204 39.9869 15.7696C39.9869 15.4868 40.0645 15.2228 40.2189 14.9912C40.3733 14.7596 40.5601 14.5928 40.8045 14.4704Z" fill="url(#paint14_linear_6850_192872)"/>
<path d="M41.7765 8.07521C41.2617 8.07521 40.7917 8.18441 40.3669 8.40321C39.9421 8.62201 39.6073 8.91801 39.3693 9.29761C39.1325 9.66592 39.0073 10.0949 39.0089 10.5328C39.0089 10.9316 39.0989 11.2984 39.2857 11.6264C39.4683 11.9433 39.7188 12.2159 40.0193 12.4244L39.0989 13.6724C39.0436 13.7475 39.0102 13.8365 39.0024 13.9295C38.9947 14.0224 39.0128 14.1157 39.0548 14.199C39.0968 14.2823 39.1611 14.3523 39.2404 14.4012C39.3198 14.4502 39.4112 14.4762 39.5045 14.4764H39.7685C39.5109 14.6504 39.3045 14.8564 39.1633 15.1004C38.9957 15.3772 38.9121 15.6668 38.9121 15.9628C38.9121 16.516 39.1569 16.9728 39.6397 17.314C40.1157 17.6548 40.7853 17.8288 41.6285 17.8288C42.2145 17.8288 42.7741 17.732 43.2829 17.5456C43.7977 17.3588 44.2161 17.0824 44.5253 16.722C44.8405 16.362 45.0013 15.9244 45.0013 15.4224C45.0013 14.8948 44.8085 14.5216 44.3577 14.1616C43.9717 13.8592 43.3665 13.6984 42.6133 13.6984H40.0385C40.0321 13.6984 40.0257 13.6916 40.0257 13.6916C40.0257 13.6916 40.0193 13.6788 40.0257 13.6724L40.6953 12.7716C40.8753 12.8556 41.0429 12.9068 41.1909 12.9388C41.3453 12.9712 41.5193 12.984 41.7121 12.984C42.2529 12.984 42.7421 12.8748 43.1669 12.656C43.5917 12.4372 43.9329 12.1412 44.1777 11.7616C44.4192 11.3951 44.5469 10.9653 44.5445 10.5264C44.5445 10.0504 44.3129 9.18161 43.6817 8.73801C43.6817 8.73121 43.6885 8.73121 43.6885 8.73121L45.0721 8.88561V8.24881H42.8581C42.5093 8.13283 42.1441 8.0742 41.7765 8.07521ZM42.5489 12.1028C42.3114 12.2309 42.0463 12.2993 41.7765 12.302C41.3453 12.302 40.9657 12.1476 40.6437 11.8452C40.3217 11.5428 40.1609 11.0988 40.1609 10.5332C40.1609 9.96681 40.3217 9.52281 40.6437 9.22041C40.9657 8.91801 41.3453 8.76361 41.7765 8.76361C42.0469 8.76361 42.3045 8.82761 42.5489 8.96281C42.7937 9.09161 42.9933 9.29081 43.1541 9.55481C43.3085 9.81881 43.3921 10.1468 43.3921 10.5328C43.3921 10.9252 43.3149 11.2532 43.1541 11.5108C43.0105 11.7599 42.8011 11.9647 42.5489 12.1028ZM40.8045 14.4704H42.5489C43.0317 14.4704 43.3409 14.5664 43.5469 14.7728C43.7529 14.9784 43.8557 15.2552 43.8557 15.5768C43.8557 16.0464 43.6689 16.4328 43.2957 16.722C42.9225 17.0116 42.4201 17.1596 41.8025 17.1596C41.2617 17.1596 40.8109 17.0372 40.4829 16.8056C40.1545 16.574 39.9869 16.2204 39.9869 15.7696C39.9869 15.4868 40.0645 15.2228 40.2189 14.9912C40.3733 14.7596 40.5601 14.5928 40.8045 14.4704Z" fill="url(#paint15_linear_6850_192872)"/>
</g>
<g id="Vector_9">
<path d="M69.9926 14.3855C69.8696 14.316 69.7665 14.216 69.6934 14.0951C69.6228 13.9721 69.5855 13.8329 69.585 13.6911C69.585 13.5455 69.6234 13.4067 69.6934 13.2867C69.7634 13.1603 69.8654 13.0655 69.9926 12.9959C70.1232 12.9244 70.27 12.8875 70.419 12.8887C70.5782 12.8887 70.7182 12.9267 70.8458 12.9959C70.973 13.0655 71.0686 13.1667 71.145 13.2867C71.215 13.4131 71.2534 13.5455 71.2534 13.6907C71.2534 13.8363 71.215 13.9747 71.145 14.0947C71.075 14.2215 70.973 14.3159 70.8458 14.3855C70.715 14.4572 70.5681 14.4942 70.419 14.4931C70.2701 14.4934 70.1235 14.4564 69.9926 14.3855ZM70.7758 14.2907C70.8838 14.2339 70.9606 14.1455 71.0242 14.0447C71.0814 13.9371 71.1134 13.8171 71.1134 13.6847C71.1134 13.5519 71.0814 13.4319 71.0242 13.3247C70.9684 13.2191 70.8818 13.1332 70.7758 13.0783C70.6661 13.0196 70.5434 12.9892 70.419 12.9899C70.2858 12.9899 70.171 13.0215 70.0622 13.0779C69.9546 13.1351 69.8774 13.2235 69.8142 13.3247C69.755 13.4354 69.7243 13.5592 69.725 13.6847C69.725 13.8171 69.757 13.9371 69.8142 14.0447C69.8718 14.1519 69.9546 14.2339 70.0622 14.2907C70.171 14.3475 70.2858 14.3791 70.419 14.3791C70.5526 14.3791 70.6738 14.3535 70.7758 14.2907ZM70.0754 14.0699V14.0131L70.0882 14.0067H70.1266C70.1386 14.0067 70.1514 14.0003 70.1578 13.9939C70.171 13.9815 70.171 13.9751 70.171 13.9623V13.3751C70.1708 13.3633 70.1661 13.3519 70.1578 13.3435C70.145 13.3307 70.1386 13.3307 70.1266 13.3307H70.0882L70.0754 13.3247V13.2679L70.0882 13.2615H70.419C70.5146 13.2615 70.5846 13.2803 70.6418 13.3247C70.6994 13.3687 70.7246 13.4255 70.7246 13.5015C70.7257 13.5299 70.7206 13.5582 70.7096 13.5844C70.6986 13.6106 70.682 13.634 70.661 13.6531C70.6188 13.6968 70.5623 13.7238 70.5018 13.7291L70.5782 13.7539L70.7246 13.9875C70.7374 14.0067 70.7502 14.0131 70.7694 14.0131H70.8074L70.8138 14.0191V14.0759L70.8074 14.0823H70.6102L70.5974 14.0763L70.3934 13.7351H70.3426V13.9623C70.3428 13.9742 70.3475 13.9856 70.3558 13.9943C70.3686 14.0063 70.375 14.0063 70.387 14.0063H70.4254L70.4386 14.0131V14.0699L70.4254 14.0763H70.0882L70.0754 14.0699ZM70.3998 13.6591C70.4514 13.6591 70.4954 13.6467 70.521 13.6151C70.5505 13.5822 70.5664 13.5393 70.5654 13.4951C70.5673 13.4519 70.5539 13.4093 70.5274 13.3751C70.5018 13.3435 70.4634 13.3311 70.419 13.3311H70.3934C70.3818 13.3312 70.3707 13.3357 70.3622 13.3435C70.3494 13.3559 70.3494 13.3623 70.3494 13.3751V13.6591H70.3998Z" fill="url(#paint16_linear_6850_192872)"/>
<path d="M69.9926 14.3855C69.8696 14.316 69.7665 14.216 69.6934 14.0951C69.6228 13.9721 69.5855 13.8329 69.585 13.6911C69.585 13.5455 69.6234 13.4067 69.6934 13.2867C69.7634 13.1603 69.8654 13.0655 69.9926 12.9959C70.1232 12.9244 70.27 12.8875 70.419 12.8887C70.5782 12.8887 70.7182 12.9267 70.8458 12.9959C70.973 13.0655 71.0686 13.1667 71.145 13.2867C71.215 13.4131 71.2534 13.5455 71.2534 13.6907C71.2534 13.8363 71.215 13.9747 71.145 14.0947C71.075 14.2215 70.973 14.3159 70.8458 14.3855C70.715 14.4572 70.5681 14.4942 70.419 14.4931C70.2701 14.4934 70.1235 14.4564 69.9926 14.3855ZM70.7758 14.2907C70.8838 14.2339 70.9606 14.1455 71.0242 14.0447C71.0814 13.9371 71.1134 13.8171 71.1134 13.6847C71.1134 13.5519 71.0814 13.4319 71.0242 13.3247C70.9684 13.2191 70.8818 13.1332 70.7758 13.0783C70.6661 13.0196 70.5434 12.9892 70.419 12.9899C70.2858 12.9899 70.171 13.0215 70.0622 13.0779C69.9546 13.1351 69.8774 13.2235 69.8142 13.3247C69.755 13.4354 69.7243 13.5592 69.725 13.6847C69.725 13.8171 69.757 13.9371 69.8142 14.0447C69.8718 14.1519 69.9546 14.2339 70.0622 14.2907C70.171 14.3475 70.2858 14.3791 70.419 14.3791C70.5526 14.3791 70.6738 14.3535 70.7758 14.2907ZM70.0754 14.0699V14.0131L70.0882 14.0067H70.1266C70.1386 14.0067 70.1514 14.0003 70.1578 13.9939C70.171 13.9815 70.171 13.9751 70.171 13.9623V13.3751C70.1708 13.3633 70.1661 13.3519 70.1578 13.3435C70.145 13.3307 70.1386 13.3307 70.1266 13.3307H70.0882L70.0754 13.3247V13.2679L70.0882 13.2615H70.419C70.5146 13.2615 70.5846 13.2803 70.6418 13.3247C70.6994 13.3687 70.7246 13.4255 70.7246 13.5015C70.7257 13.5299 70.7206 13.5582 70.7096 13.5844C70.6986 13.6106 70.682 13.634 70.661 13.6531C70.6188 13.6968 70.5623 13.7238 70.5018 13.7291L70.5782 13.7539L70.7246 13.9875C70.7374 14.0067 70.7502 14.0131 70.7694 14.0131H70.8074L70.8138 14.0191V14.0759L70.8074 14.0823H70.6102L70.5974 14.0763L70.3934 13.7351H70.3426V13.9623C70.3428 13.9742 70.3475 13.9856 70.3558 13.9943C70.3686 14.0063 70.375 14.0063 70.387 14.0063H70.4254L70.4386 14.0131V14.0699L70.4254 14.0763H70.0882L70.0754 14.0699ZM70.3998 13.6591C70.4514 13.6591 70.4954 13.6467 70.521 13.6151C70.5505 13.5822 70.5664 13.5393 70.5654 13.4951C70.5673 13.4519 70.5539 13.4093 70.5274 13.3751C70.5018 13.3435 70.4634 13.3311 70.419 13.3311H70.3934C70.3818 13.3312 70.3707 13.3357 70.3622 13.3435C70.3494 13.3559 70.3494 13.3623 70.3494 13.3751V13.6591H70.3998Z" fill="url(#paint17_linear_6850_192872)"/>
</g>
</g>
<defs>
<linearGradient id="paint0_linear_6850_192872" x1="4.39119" y1="-0.0101052" x2="4.39119" y2="16.4811" gradientUnits="userSpaceOnUse">
<stop stop-color="white"/>
<stop offset="1" stop-color="white" stop-opacity="0.8"/>
</linearGradient>
<linearGradient id="paint1_linear_6850_192872" x1="4.39114" y1="-0.00896556" x2="4.39114" y2="16.4819" gradientUnits="userSpaceOnUse">
<stop stop-color="#0D0D0D"/>
<stop offset="1" stop-color="#1A1A1A" stop-opacity="0.8"/>
</linearGradient>
<linearGradient id="paint2_linear_6850_192872" x1="17.1954" y1="5.70117" x2="17.1954" y2="14.6208" gradientUnits="userSpaceOnUse">
<stop stop-color="white"/>
<stop offset="1" stop-color="white" stop-opacity="0.8"/>
</linearGradient>
<linearGradient id="paint3_linear_6850_192872" x1="17.1952" y1="5.7016" x2="17.1952" y2="14.6212" gradientUnits="userSpaceOnUse">
<stop stop-color="#0D0D0D"/>
<stop offset="1" stop-color="#1A1A1A" stop-opacity="0.8"/>
</linearGradient>
<linearGradient id="paint4_linear_6850_192872" x1="34.4218" y1="8.0752" x2="34.4218" y2="14.492" gradientUnits="userSpaceOnUse">
<stop stop-color="white"/>
<stop offset="1" stop-color="white" stop-opacity="0.8"/>
</linearGradient>
<linearGradient id="paint5_linear_6850_192872" x1="34.4214" y1="8.07551" x2="34.4214" y2="14.4923" gradientUnits="userSpaceOnUse">
<stop stop-color="#0D0D0D"/>
<stop offset="1" stop-color="#1A1A1A" stop-opacity="0.8"/>
</linearGradient>
<linearGradient id="paint6_linear_6850_192872" x1="57.2335" y1="5.70117" x2="57.2335" y2="14.4924" gradientUnits="userSpaceOnUse">
<stop stop-color="white"/>
<stop offset="1" stop-color="white" stop-opacity="0.8"/>
</linearGradient>
<linearGradient id="paint7_linear_6850_192872" x1="57.2335" y1="5.7016" x2="57.2335" y2="14.4928" gradientUnits="userSpaceOnUse">
<stop stop-color="#0D0D0D"/>
<stop offset="1" stop-color="#1A1A1A" stop-opacity="0.8"/>
</linearGradient>
<linearGradient id="paint8_linear_6850_192872" x1="65.225" y1="5.70117" x2="65.225" y2="14.4924" gradientUnits="userSpaceOnUse">
<stop stop-color="white"/>
<stop offset="1" stop-color="white" stop-opacity="0.8"/>
</linearGradient>
<linearGradient id="paint9_linear_6850_192872" x1="65.225" y1="5.7016" x2="65.225" y2="14.4928" gradientUnits="userSpaceOnUse">
<stop stop-color="#0D0D0D"/>
<stop offset="1" stop-color="#1A1A1A" stop-opacity="0.8"/>
</linearGradient>
<linearGradient id="paint10_linear_6850_192872" x1="26.6252" y1="8.07529" x2="26.6252" y2="14.6205" gradientUnits="userSpaceOnUse">
<stop stop-color="white"/>
<stop offset="1" stop-color="white" stop-opacity="0.8"/>
</linearGradient>
<linearGradient id="paint11_linear_6850_192872" x1="26.6252" y1="8.07551" x2="26.6252" y2="14.6209" gradientUnits="userSpaceOnUse">
<stop stop-color="#0D0D0D"/>
<stop offset="1" stop-color="#1A1A1A" stop-opacity="0.8"/>
</linearGradient>
<linearGradient id="paint12_linear_6850_192872" x1="49.2785" y1="8.07529" x2="49.2785" y2="14.6205" gradientUnits="userSpaceOnUse">
<stop stop-color="white"/>
<stop offset="1" stop-color="white" stop-opacity="0.8"/>
</linearGradient>
<linearGradient id="paint13_linear_6850_192872" x1="49.2785" y1="8.07551" x2="49.2785" y2="14.6209" gradientUnits="userSpaceOnUse">
<stop stop-color="#0D0D0D"/>
<stop offset="1" stop-color="#1A1A1A" stop-opacity="0.8"/>
</linearGradient>
<linearGradient id="paint14_linear_6850_192872" x1="41.9921" y1="8.07521" x2="41.9921" y2="17.8288" gradientUnits="userSpaceOnUse">
<stop stop-color="white"/>
<stop offset="1" stop-color="white" stop-opacity="0.8"/>
</linearGradient>
<linearGradient id="paint15_linear_6850_192872" x1="41.9921" y1="8.07567" x2="41.9921" y2="17.8293" gradientUnits="userSpaceOnUse">
<stop stop-color="#0D0D0D"/>
<stop offset="1" stop-color="#1A1A1A" stop-opacity="0.8"/>
</linearGradient>
<linearGradient id="paint16_linear_6850_192872" x1="70.419" y1="12.8887" x2="70.419" y2="14.4931" gradientUnits="userSpaceOnUse">
<stop stop-color="white"/>
<stop offset="1" stop-color="white" stop-opacity="0.8"/>
</linearGradient>
<linearGradient id="paint17_linear_6850_192872" x1="70.4192" y1="12.8887" x2="70.4192" y2="14.4932" gradientUnits="userSpaceOnUse">
<stop stop-color="#0D0D0D"/>
<stop offset="1" stop-color="#1A1A1A" stop-opacity="0.8"/>
</linearGradient>
<clipPath id="clip0_6850_192872">
<rect width="71.2" height="20" fill="white" transform="translate(0.200195 -0.00976562)"/>
</clipPath>
</defs>
</svg>
