<svg width="229" height="51" viewBox="0 0 229 51" fill="none" xmlns="http://www.w3.org/2000/svg">
<g clip-path="url(#clip0_8347_465149)">
<path d="M17.5703 4.698C17.617 5.71533 17.6963 6.77 17.8083 7.862C17.9203 8.94467 18.0416 9.98067 18.1723 10.97C18.2003 11.3807 18.0883 11.5907 17.8363 11.6C17.7803 11.6 17.7243 11.5813 17.6683 11.544C17.6123 11.4973 17.561 11.4413 17.5143 11.376C17.4676 11.3107 17.421 11.2407 17.3743 11.166C17.337 11.0913 17.3136 11.026 17.3043 10.97C17.2296 10.494 17.1596 9.99 17.0943 9.458C17.029 8.926 16.9683 8.394 16.9123 7.862C16.8656 7.32067 16.8236 6.79333 16.7863 6.28C16.749 5.76667 16.7256 5.29533 16.7163 4.866C16.735 4.642 16.7676 4.45533 16.8143 4.306C16.861 4.14733 16.959 4.07267 17.1083 4.082C17.267 4.09133 17.379 4.15667 17.4443 4.278C17.519 4.39 17.561 4.53 17.5703 4.698ZM22.5401 6.364C22.8201 6.46667 23.0534 6.62067 23.2401 6.826C23.4361 7.03133 23.5854 7.26467 23.6881 7.526C23.7908 7.778 23.8468 8.03933 23.8561 8.31C23.8748 8.58067 23.8468 8.83267 23.7721 9.066C23.6694 9.32733 23.5388 9.584 23.3801 9.836C23.2214 10.088 23.0394 10.312 22.8341 10.508C22.6288 10.704 22.3954 10.8627 22.1341 10.984C21.8728 11.1053 21.5834 11.166 21.2661 11.166C20.8834 11.166 20.5614 11.0773 20.3001 10.9C20.0388 10.7227 19.8334 10.494 19.6841 10.214C19.5348 9.934 19.4368 9.61667 19.3901 9.262C19.3528 8.90733 19.3621 8.55267 19.4181 8.198C19.4554 7.93667 19.5161 7.68467 19.6001 7.442C19.6934 7.19 19.8101 6.97067 19.9501 6.784C20.0901 6.588 20.2488 6.42933 20.4261 6.308C20.6128 6.18667 20.8228 6.126 21.0561 6.126C21.1868 6.126 21.3501 6.154 21.5461 6.21C21.7421 6.25667 21.9241 6.32667 22.0921 6.42C22.2134 6.308 22.3628 6.28933 22.5401 6.364ZM22.0081 7.386C21.9054 7.32067 21.7841 7.23667 21.6441 7.134C21.5134 7.022 21.3968 6.966 21.2941 6.966C21.1821 6.966 21.0701 7.01733 20.9581 7.12C20.8554 7.22267 20.7621 7.344 20.6781 7.484C20.6034 7.61467 20.5381 7.75 20.4821 7.89C20.4261 8.03 20.3888 8.142 20.3701 8.226C20.3421 8.366 20.3234 8.534 20.3141 8.73C20.3048 8.926 20.3188 9.122 20.3561 9.318C20.3934 9.50467 20.4634 9.67733 20.5661 9.836C20.6781 9.98533 20.8414 10.0927 21.0561 10.158C21.1868 10.1953 21.3408 10.1953 21.5181 10.158C21.6954 10.1113 21.8681 10.032 22.0361 9.92C22.2134 9.808 22.3768 9.65867 22.5261 9.472C22.6848 9.28533 22.8061 9.07067 22.8901 8.828C22.9834 8.55733 22.9834 8.27733 22.8901 7.988C22.8061 7.68933 22.6288 7.47467 22.3581 7.344C22.2928 7.39067 22.2274 7.414 22.1621 7.414C22.0968 7.414 22.0454 7.40467 22.0081 7.386ZM28.2003 6.364C28.4803 6.46667 28.7136 6.62067 28.9003 6.826C29.0963 7.03133 29.2456 7.26467 29.3483 7.526C29.4509 7.778 29.5069 8.03933 29.5163 8.31C29.5349 8.58067 29.5069 8.83267 29.4323 9.066C29.3296 9.32733 29.1989 9.584 29.0403 9.836C28.8816 10.088 28.6996 10.312 28.4943 10.508C28.2889 10.704 28.0556 10.8627 27.7943 10.984C27.5329 11.1053 27.2436 11.166 26.9263 11.166C26.5436 11.166 26.2216 11.0773 25.9603 10.9C25.6989 10.7227 25.4936 10.494 25.3443 10.214C25.1949 9.934 25.0969 9.61667 25.0503 9.262C25.0129 8.90733 25.0223 8.55267 25.0783 8.198C25.1156 7.93667 25.1763 7.68467 25.2603 7.442C25.3536 7.19 25.4703 6.97067 25.6103 6.784C25.7503 6.588 25.9089 6.42933 26.0863 6.308C26.2729 6.18667 26.4829 6.126 26.7163 6.126C26.8469 6.126 27.0103 6.154 27.2063 6.21C27.4023 6.25667 27.5843 6.32667 27.7523 6.42C27.8736 6.308 28.0229 6.28933 28.2003 6.364ZM27.6683 7.386C27.5656 7.32067 27.4443 7.23667 27.3043 7.134C27.1736 7.022 27.0569 6.966 26.9543 6.966C26.8423 6.966 26.7303 7.01733 26.6183 7.12C26.5156 7.22267 26.4223 7.344 26.3383 7.484C26.2636 7.61467 26.1983 7.75 26.1423 7.89C26.0863 8.03 26.0489 8.142 26.0303 8.226C26.0023 8.366 25.9836 8.534 25.9743 8.73C25.9649 8.926 25.9789 9.122 26.0163 9.318C26.0536 9.50467 26.1236 9.67733 26.2263 9.836C26.3383 9.98533 26.5016 10.0927 26.7163 10.158C26.8469 10.1953 27.0009 10.1953 27.1783 10.158C27.3556 10.1113 27.5283 10.032 27.6963 9.92C27.8736 9.808 28.0369 9.65867 28.1863 9.472C28.3449 9.28533 28.4663 9.07067 28.5503 8.828C28.6436 8.55733 28.6436 8.27733 28.5503 7.988C28.4663 7.68933 28.2889 7.47467 28.0183 7.344C27.9529 7.39067 27.8876 7.414 27.8223 7.414C27.7569 7.414 27.7056 7.40467 27.6683 7.386ZM34.4904 6.672C34.5277 6.66267 34.5837 6.658 34.6584 6.658C34.7331 6.64867 34.8031 6.65333 34.8684 6.672C34.9431 6.68133 35.0037 6.70467 35.0504 6.742C35.1064 6.77 35.1391 6.80733 35.1484 6.854C35.1671 6.966 35.1484 7.06867 35.0924 7.162C35.0457 7.246 34.9571 7.32067 34.8264 7.386C34.4717 7.554 34.1031 7.74533 33.7204 7.96C33.3377 8.16533 33.0111 8.352 32.7404 8.52C32.9084 8.632 33.0997 8.758 33.3144 8.898C33.5384 9.038 33.7671 9.18733 34.0004 9.346C34.2337 9.49533 34.4671 9.65867 34.7004 9.836C34.9337 10.004 35.1531 10.172 35.3584 10.34C35.5451 10.4987 35.5777 10.6433 35.4564 10.774C35.4004 10.8393 35.3071 10.886 35.1764 10.914C35.0551 10.942 34.9384 10.928 34.8264 10.872C34.6211 10.7693 34.3971 10.648 34.1544 10.508C33.9117 10.3587 33.6644 10.2093 33.4124 10.06C33.1604 9.90133 32.9131 9.74733 32.6704 9.598C32.4371 9.43933 32.2224 9.29467 32.0264 9.164C32.0637 9.49067 32.0964 9.81733 32.1244 10.144C32.1617 10.4707 32.1944 10.7973 32.2224 11.124C32.2784 11.3013 32.2737 11.446 32.2084 11.558C32.1431 11.67 32.0357 11.7213 31.8864 11.712C31.7277 11.684 31.6111 11.6233 31.5364 11.53C31.4617 11.4273 31.4057 11.2967 31.3684 11.138C31.3124 10.7553 31.2471 10.3027 31.1724 9.78C31.1071 9.25733 31.0371 8.716 30.9624 8.156C30.8877 7.596 30.8131 7.05 30.7384 6.518C30.6731 5.986 30.6124 5.51467 30.5564 5.104C30.5377 4.97333 30.5237 4.83333 30.5144 4.684C30.5144 4.52533 30.5657 4.42267 30.6684 4.376C30.8084 4.32 30.9531 4.35267 31.1024 4.474C31.2517 4.586 31.3637 4.75867 31.4384 4.992C31.5131 5.42133 31.5877 5.888 31.6624 6.392C31.7371 6.896 31.8117 7.428 31.8864 7.988C32.0731 7.876 32.2877 7.75467 32.5304 7.624C32.7824 7.484 33.0297 7.35333 33.2724 7.232C33.5244 7.10133 33.7577 6.98467 33.9724 6.882C34.1871 6.77933 34.3597 6.70933 34.4904 6.672ZM40.7417 8.702C40.6111 8.72067 40.4571 8.70667 40.2797 8.66C40.1117 8.61333 39.9951 8.49667 39.9297 8.31C39.9017 8.21667 39.8971 8.128 39.9157 8.044C39.9344 7.95067 40.0324 7.88533 40.2097 7.848C40.3777 7.81067 40.5551 7.778 40.7417 7.75C40.9377 7.71267 41.1337 7.68 41.3297 7.652L40.8117 6.084C40.6531 5.48667 40.6344 4.97333 40.7557 4.544C40.8771 4.11467 41.2224 3.80667 41.7917 3.62C42.0251 3.54533 42.2537 3.51733 42.4777 3.536C42.7111 3.55467 42.9304 3.61533 43.1357 3.718C43.3411 3.82067 43.5277 3.956 43.6957 4.124C43.8637 4.292 43.9991 4.488 44.1017 4.712C44.1391 4.81467 44.1577 4.908 44.1577 4.992C44.1671 5.06667 44.1391 5.13667 44.0737 5.202C43.9804 5.29533 43.8777 5.33733 43.7657 5.328C43.6537 5.30933 43.5791 5.27667 43.5417 5.23C43.4577 5.12733 43.3644 5.02467 43.2617 4.922C43.1684 4.81 43.0657 4.71667 42.9537 4.642C42.8511 4.558 42.7391 4.49733 42.6177 4.46C42.4964 4.41333 42.3657 4.39933 42.2257 4.418C42.1604 4.42733 42.0811 4.46 41.9877 4.516C41.9037 4.572 41.8291 4.66067 41.7637 4.782C41.6984 4.894 41.6564 5.04333 41.6377 5.23C41.6284 5.41667 41.6611 5.65 41.7357 5.93C41.8011 6.16333 41.8757 6.41533 41.9597 6.686C42.0437 6.95667 42.1371 7.24133 42.2397 7.54C42.6877 7.49333 43.0984 7.47933 43.4717 7.498C43.6771 7.51667 43.8684 7.554 44.0457 7.61C44.2231 7.666 44.3677 7.75 44.4797 7.862C44.5077 7.95533 44.5031 8.03467 44.4657 8.1C44.4284 8.156 44.3724 8.20733 44.2977 8.254C44.2324 8.29133 44.1531 8.31933 44.0597 8.338C43.9757 8.35667 43.8917 8.37067 43.8077 8.38C43.6211 8.39867 43.4251 8.422 43.2197 8.45C43.0144 8.46867 42.7997 8.48733 42.5757 8.506C42.7251 8.926 42.8604 9.32733 42.9817 9.71C43.1124 10.0833 43.2151 10.396 43.2897 10.648C43.3271 10.788 43.3317 10.9373 43.3037 11.096C43.2757 11.2547 43.2384 11.4087 43.1917 11.558C43.1171 11.7727 43.0237 11.9453 42.9117 12.076C42.7997 12.2067 42.6784 12.2487 42.5477 12.202C42.4451 12.1553 42.3797 12.0947 42.3517 12.02C42.3237 11.9453 42.3191 11.8427 42.3377 11.712C42.3564 11.5627 42.3657 11.4133 42.3657 11.264C42.3657 11.1147 42.3564 10.9793 42.3377 10.858C42.3284 10.7273 42.3097 10.6153 42.2817 10.522C42.2631 10.4193 42.2491 10.3493 42.2397 10.312L41.6517 8.604C41.5024 8.62267 41.3531 8.64133 41.2037 8.66C41.0544 8.66933 40.9004 8.68333 40.7417 8.702ZM48.667 6.364C48.947 6.46667 49.1804 6.62067 49.367 6.826C49.563 7.03133 49.7124 7.26467 49.815 7.526C49.9177 7.778 49.9737 8.03933 49.983 8.31C50.0017 8.58067 49.9737 8.83267 49.899 9.066C49.7964 9.32733 49.6657 9.584 49.507 9.836C49.3484 10.088 49.1664 10.312 48.961 10.508C48.7557 10.704 48.5224 10.8627 48.261 10.984C47.9997 11.1053 47.7104 11.166 47.393 11.166C47.0104 11.166 46.6884 11.0773 46.427 10.9C46.1657 10.7227 45.9604 10.494 45.811 10.214C45.6617 9.934 45.5637 9.61667 45.517 9.262C45.4797 8.90733 45.489 8.55267 45.545 8.198C45.5824 7.93667 45.643 7.68467 45.727 7.442C45.8204 7.19 45.937 6.97067 46.077 6.784C46.217 6.588 46.3757 6.42933 46.553 6.308C46.7397 6.18667 46.9497 6.126 47.183 6.126C47.3137 6.126 47.477 6.154 47.673 6.21C47.869 6.25667 48.051 6.32667 48.219 6.42C48.3404 6.308 48.4897 6.28933 48.667 6.364ZM48.135 7.386C48.0324 7.32067 47.911 7.23667 47.771 7.134C47.6404 7.022 47.5237 6.966 47.421 6.966C47.309 6.966 47.197 7.01733 47.085 7.12C46.9824 7.22267 46.889 7.344 46.805 7.484C46.7304 7.61467 46.665 7.75 46.609 7.89C46.553 8.03 46.5157 8.142 46.497 8.226C46.469 8.366 46.4504 8.534 46.441 8.73C46.4317 8.926 46.4457 9.122 46.483 9.318C46.5204 9.50467 46.5904 9.67733 46.693 9.836C46.805 9.98533 46.9684 10.0927 47.183 10.158C47.3137 10.1953 47.4677 10.1953 47.645 10.158C47.8224 10.1113 47.995 10.032 48.163 9.92C48.3404 9.808 48.5037 9.65867 48.653 9.472C48.8117 9.28533 48.933 9.07067 49.017 8.828C49.1104 8.55733 49.1104 8.27733 49.017 7.988C48.933 7.68933 48.7557 7.47467 48.485 7.344C48.4197 7.39067 48.3544 7.414 48.289 7.414C48.2237 7.414 48.1724 7.40467 48.135 7.386ZM55.2932 6.42C55.1252 6.51333 54.9479 6.61133 54.7612 6.714C54.5839 6.81667 54.4019 6.938 54.2152 7.078C54.0379 7.20867 53.8652 7.36733 53.6972 7.554C53.5385 7.73133 53.3939 7.946 53.2632 8.198C53.0765 8.55267 52.9505 8.91667 52.8852 9.29C52.8199 9.654 52.7779 10.0133 52.7592 10.368C52.7592 10.536 52.7172 10.7087 52.6332 10.886C52.5585 11.054 52.4512 11.138 52.3112 11.138C52.1339 11.138 51.9892 11.0493 51.8772 10.872C51.7745 10.6853 51.7045 10.508 51.6672 10.34C51.5085 9.67733 51.3779 9.024 51.2752 8.38C51.1725 7.72667 51.0839 7.078 51.0092 6.434C51.0092 6.30333 51.0465 6.21933 51.1212 6.182C51.2052 6.14467 51.2985 6.13067 51.4012 6.14C51.5132 6.14933 51.6205 6.17733 51.7232 6.224C51.8259 6.27067 51.8865 6.34533 51.9052 6.448C51.9425 6.79333 51.9892 7.15733 52.0452 7.54C52.1012 7.91333 52.1572 8.23533 52.2132 8.506C52.2505 8.18867 52.3532 7.88067 52.5212 7.582C52.6892 7.28333 52.8945 7.01267 53.1372 6.77C53.3892 6.52733 53.6692 6.322 53.9772 6.154C54.2945 5.986 54.6165 5.874 54.9432 5.818C55.0832 5.79933 55.1999 5.79933 55.2932 5.818C55.3865 5.83667 55.4519 5.86933 55.4892 5.916C55.5265 5.96267 55.5312 6.03733 55.5032 6.14C55.4845 6.24267 55.4145 6.336 55.2932 6.42ZM63.2403 7.498C63.4176 7.48867 63.5949 7.53067 63.7723 7.624C63.9496 7.71733 64.0383 7.862 64.0383 8.058C64.0196 8.21667 63.9309 8.31933 63.7723 8.366C63.6229 8.40333 63.5016 8.422 63.4083 8.422C63.2216 8.422 63.0209 8.42667 62.8063 8.436C62.5916 8.44533 62.3723 8.45933 62.1483 8.478C62.1296 8.786 62.1109 9.07533 62.0923 9.346C62.0829 9.61667 62.0736 9.85933 62.0643 10.074C62.0549 10.2793 62.0503 10.4473 62.0503 10.578C62.0503 10.7087 62.0549 10.7787 62.0643 10.788C62.2696 10.7507 62.4889 10.69 62.7223 10.606C62.9649 10.5127 63.2029 10.4147 63.4363 10.312C63.6789 10.2 63.9123 10.088 64.1363 9.976C64.3696 9.85467 64.5889 9.74267 64.7943 9.64C64.8876 9.59333 64.9716 9.57933 65.0463 9.598C65.1303 9.61667 65.1816 9.65867 65.2003 9.724C65.2189 9.82667 65.2049 9.95267 65.1583 10.102C65.1116 10.2513 65.0276 10.3867 64.9063 10.508C64.7663 10.62 64.5796 10.7507 64.3463 10.9C64.1223 11.04 63.8796 11.1753 63.6183 11.306C63.3569 11.4367 63.0909 11.5533 62.8203 11.656C62.5589 11.7493 62.3256 11.8053 62.1203 11.824C61.8123 11.852 61.5789 11.768 61.4203 11.572C61.2616 11.376 61.1729 11.1287 61.1543 10.83C61.1356 10.5313 61.1309 10.186 61.1403 9.794C61.1589 9.402 61.1776 8.98667 61.1963 8.548C61.0189 8.56667 60.8463 8.58533 60.6783 8.604C60.5196 8.61333 60.3656 8.62733 60.2163 8.646C60.0949 8.646 59.9596 8.618 59.8103 8.562C59.6703 8.506 59.6003 8.39867 59.6003 8.24C59.6003 8.184 59.6236 8.10933 59.6703 8.016C59.7169 7.92267 59.8196 7.85267 59.9783 7.806C60.3609 7.74067 60.7856 7.68467 61.2523 7.638C61.2803 7.19933 61.3129 6.77467 61.3503 6.364C61.3876 5.95333 61.4203 5.58 61.4483 5.244C61.4576 5.132 61.4903 5.034 61.5463 4.95C61.6023 4.866 61.6629 4.824 61.7283 4.824C61.8869 4.81467 62.0363 4.85667 62.1763 4.95C62.3256 5.034 62.4003 5.132 62.4003 5.244C62.3629 5.56133 62.3256 5.92067 62.2883 6.322C62.2603 6.72333 62.2323 7.134 62.2043 7.554C62.3909 7.53533 62.5683 7.526 62.7363 7.526C62.9136 7.51667 63.0816 7.50733 63.2403 7.498ZM66.7571 5.048C66.7571 5.272 66.7525 5.524 66.7431 5.804C66.7431 6.084 66.7431 6.37333 66.7431 6.672C66.7525 6.97067 66.7571 7.27867 66.7571 7.596C66.7665 7.91333 66.7758 8.21667 66.7851 8.506C66.8785 8.31933 66.9905 8.13733 67.1211 7.96C67.2518 7.77333 67.3965 7.61 67.5551 7.47C67.7231 7.33 67.8958 7.218 68.0731 7.134C68.2598 7.05 68.4605 7.008 68.6751 7.008C68.9085 7.008 69.1138 7.08267 69.2911 7.232C69.4778 7.38133 69.6365 7.582 69.7671 7.834C69.9071 8.07667 70.0238 8.352 70.1171 8.66C70.2105 8.95867 70.2851 9.26667 70.3411 9.584C70.4065 9.892 70.4531 10.1907 70.4811 10.48C70.5091 10.76 70.5325 11.0027 70.5511 11.208C70.5511 11.3573 70.5138 11.4787 70.4391 11.572C70.3645 11.6653 70.2758 11.712 70.1731 11.712C70.0985 11.712 70.0051 11.6653 69.8931 11.572C69.7905 11.4693 69.7158 11.348 69.6691 11.208C69.6411 11.096 69.6131 10.9327 69.5851 10.718C69.5571 10.5033 69.5245 10.2747 69.4871 10.032C69.4498 9.78 69.4031 9.528 69.3471 9.276C69.2911 9.024 69.2211 8.8 69.1371 8.604C69.0625 8.39867 68.9691 8.24 68.8571 8.128C68.7451 8.016 68.6145 7.974 68.4651 8.002C68.2318 8.04867 68.0265 8.212 67.8491 8.492C67.6811 8.772 67.5318 9.08933 67.4011 9.444C67.2798 9.79867 67.1771 10.158 67.0931 10.522C67.0185 10.886 66.9625 11.18 66.9251 11.404C66.8878 11.572 66.8365 11.6887 66.7711 11.754C66.7151 11.81 66.6498 11.838 66.5751 11.838C66.5005 11.838 66.4305 11.8007 66.3651 11.726C66.3091 11.6513 66.2531 11.5627 66.1971 11.46C66.1505 11.348 66.1085 11.236 66.0711 11.124C66.0338 11.0027 66.0105 10.9 66.0011 10.816C65.9545 10.312 65.9171 9.83133 65.8891 9.374C65.8611 8.90733 65.8378 8.44067 65.8191 7.974C65.8098 7.50733 65.8051 7.03133 65.8051 6.546C65.8051 6.05133 65.8145 5.524 65.8331 4.964C65.8331 4.49733 66.0011 4.28733 66.3371 4.334C66.4491 4.35267 66.5471 4.43667 66.6311 4.586C66.7151 4.726 66.7571 4.88 66.7571 5.048ZM73.9123 5.538C73.8937 5.63133 73.8283 5.68267 73.7163 5.692C73.6043 5.70133 73.511 5.706 73.4363 5.706C73.203 5.71533 72.9603 5.73867 72.7083 5.776C72.4657 5.81333 72.209 5.86933 71.9383 5.944C71.8263 5.98133 71.705 5.96733 71.5743 5.902C71.4437 5.83667 71.3643 5.706 71.3363 5.51C71.3363 5.43533 71.3643 5.37467 71.4203 5.328C71.4763 5.28133 71.5417 5.23933 71.6163 5.202C71.7377 5.146 71.8823 5.09933 72.0503 5.062C72.2183 5.01533 72.3863 4.98267 72.5543 4.964C72.7317 4.94533 72.8997 4.94067 73.0583 4.95C73.217 4.95 73.3477 4.964 73.4503 4.992C73.5997 5.03867 73.7163 5.10867 73.8003 5.202C73.8937 5.29533 73.931 5.40733 73.9123 5.538ZM73.5903 10.2C73.6557 10.3493 73.6883 10.5127 73.6883 10.69C73.6977 10.858 73.651 10.9747 73.5483 11.04C73.4177 11.124 73.2777 11.1193 73.1283 11.026C72.979 10.9327 72.867 10.8067 72.7923 10.648C72.6897 10.452 72.6103 10.214 72.5543 9.934C72.4983 9.64467 72.4563 9.36 72.4283 9.08C72.4003 8.8 72.3817 8.53867 72.3723 8.296C72.3723 8.05333 72.3723 7.87133 72.3723 7.75C72.3817 7.61933 72.419 7.498 72.4843 7.386C72.5497 7.274 72.6337 7.20867 72.7363 7.19C72.9043 7.19933 73.0397 7.27867 73.1423 7.428C73.245 7.568 73.2917 7.74533 73.2823 7.96C73.2823 8.128 73.287 8.31467 73.2963 8.52C73.3057 8.72533 73.3243 8.93067 73.3523 9.136C73.3803 9.34133 73.413 9.542 73.4503 9.738C73.4877 9.92467 73.5343 10.0787 73.5903 10.2ZM77.569 7.064C77.5503 6.96133 77.5316 6.86333 77.513 6.77C77.4943 6.67667 77.4476 6.616 77.373 6.588C77.2143 6.54133 77.0463 6.53667 76.869 6.574C76.6916 6.61133 76.5283 6.672 76.379 6.756C76.2296 6.83067 76.1036 6.91933 76.001 7.022C75.8983 7.11533 75.8423 7.19933 75.833 7.274C75.805 7.414 75.8423 7.54933 75.945 7.68C76.0476 7.81067 76.197 7.94133 76.393 8.072C76.7196 8.268 77.0603 8.46867 77.415 8.674C77.7696 8.87933 78.0683 9.08933 78.311 9.304C78.5536 9.51867 78.717 9.75667 78.801 10.018C78.8943 10.27 78.8756 10.5593 78.745 10.886C78.6423 11.138 78.451 11.3433 78.171 11.502C77.891 11.6607 77.583 11.7867 77.247 11.88C76.911 11.964 76.575 12.0247 76.239 12.062C75.903 12.09 75.6183 12.104 75.385 12.104C75.329 12.104 75.259 12.0853 75.175 12.048C75.1003 12.0013 75.0256 11.95 74.951 11.894C74.8856 11.838 74.825 11.782 74.769 11.726C74.7223 11.6607 74.699 11.6047 74.699 11.558C74.699 11.39 74.7736 11.2733 74.923 11.208C75.0723 11.1427 75.2263 11.11 75.385 11.11C75.609 11.11 75.847 11.1007 76.099 11.082C76.3603 11.054 76.6076 11.0167 76.841 10.97C77.0743 10.914 77.2843 10.844 77.471 10.76C77.6576 10.676 77.7883 10.5687 77.863 10.438C77.9283 10.326 77.8863 10.1953 77.737 10.046C77.597 9.88733 77.4056 9.724 77.163 9.556C76.9296 9.388 76.673 9.22467 76.393 9.066C76.1223 8.90733 75.889 8.76267 75.693 8.632C75.497 8.50133 75.329 8.34733 75.189 8.17C75.049 7.98333 74.9603 7.75467 74.923 7.484C74.9136 7.24133 74.965 7.008 75.077 6.784C75.189 6.56 75.3336 6.364 75.511 6.196C75.6976 6.01867 75.9076 5.87867 76.141 5.776C76.3743 5.67333 76.6076 5.622 76.841 5.622C77.2423 5.64067 77.5736 5.75267 77.835 5.958C78.0963 6.154 78.2503 6.448 78.297 6.84C78.297 6.97067 78.2736 7.078 78.227 7.162C78.1896 7.246 78.1196 7.29733 78.017 7.316C77.8863 7.33467 77.779 7.32067 77.695 7.274C77.6203 7.218 77.5783 7.148 77.569 7.064ZM85.9709 5.538C85.9523 5.63133 85.8869 5.68267 85.7749 5.692C85.6629 5.70133 85.5696 5.706 85.4949 5.706C85.2616 5.71533 85.0189 5.73867 84.7669 5.776C84.5243 5.81333 84.2676 5.86933 83.9969 5.944C83.8849 5.98133 83.7636 5.96733 83.6329 5.902C83.5023 5.83667 83.4229 5.706 83.3949 5.51C83.3949 5.43533 83.4229 5.37467 83.4789 5.328C83.5349 5.28133 83.6003 5.23933 83.6749 5.202C83.7963 5.146 83.9409 5.09933 84.1089 5.062C84.2769 5.01533 84.4449 4.98267 84.6129 4.964C84.7903 4.94533 84.9583 4.94067 85.1169 4.95C85.2756 4.95 85.4063 4.964 85.5089 4.992C85.6583 5.03867 85.7749 5.10867 85.8589 5.202C85.9523 5.29533 85.9896 5.40733 85.9709 5.538ZM85.6489 10.2C85.7143 10.3493 85.7469 10.5127 85.7469 10.69C85.7563 10.858 85.7096 10.9747 85.6069 11.04C85.4763 11.124 85.3363 11.1193 85.1869 11.026C85.0376 10.9327 84.9256 10.8067 84.8509 10.648C84.7483 10.452 84.6689 10.214 84.6129 9.934C84.5569 9.64467 84.5149 9.36 84.4869 9.08C84.4589 8.8 84.4403 8.53867 84.4309 8.296C84.4309 8.05333 84.4309 7.87133 84.4309 7.75C84.4403 7.61933 84.4776 7.498 84.5429 7.386C84.6083 7.274 84.6923 7.20867 84.7949 7.19C84.9629 7.19933 85.0983 7.27867 85.2009 7.428C85.3036 7.568 85.3503 7.74533 85.3409 7.96C85.3409 8.128 85.3456 8.31467 85.3549 8.52C85.3643 8.72533 85.3829 8.93067 85.4109 9.136C85.4389 9.34133 85.4716 9.542 85.5089 9.738C85.5463 9.92467 85.5929 10.0787 85.6489 10.2ZM87.9055 6.63C87.9335 6.77 87.9615 6.92867 87.9895 7.106C88.0269 7.274 88.0642 7.45133 88.1015 7.638C88.1389 7.81533 88.1715 7.99733 88.1995 8.184C88.2275 8.37067 88.2509 8.548 88.2695 8.716C88.3815 8.47333 88.5029 8.21667 88.6335 7.946C88.7642 7.67533 88.9042 7.428 89.0535 7.204C89.2122 6.97067 89.3755 6.77933 89.5435 6.63C89.7209 6.48067 89.9122 6.406 90.1175 6.406C90.4255 6.406 90.6822 6.518 90.8875 6.742C91.1022 6.966 91.2795 7.246 91.4195 7.582C91.5689 7.90867 91.6855 8.254 91.7695 8.618C91.8535 8.982 91.9235 9.304 91.9795 9.584C92.0355 9.836 91.9235 10.0227 91.6435 10.144C91.5129 10.2093 91.4149 10.2187 91.3495 10.172C91.2842 10.1253 91.2469 10.0787 91.2375 10.032C91.1909 9.92 91.1302 9.724 91.0555 9.444C90.9902 9.164 90.9109 8.87933 90.8175 8.59C90.7335 8.30067 90.6355 8.04867 90.5235 7.834C90.4115 7.61933 90.2855 7.52133 90.1455 7.54C89.9775 7.54933 89.8282 7.67533 89.6975 7.918C89.5855 8.114 89.4689 8.33333 89.3475 8.576C89.2355 8.80933 89.1235 9.052 89.0115 9.304C88.8995 9.54667 88.7875 9.794 88.6755 10.046C88.5729 10.2887 88.4749 10.5127 88.3815 10.718C88.3162 10.7833 88.2322 10.83 88.1295 10.858C88.0362 10.8767 87.9382 10.8673 87.8355 10.83C87.7422 10.802 87.6675 10.7553 87.6115 10.69C87.5555 10.6247 87.5275 10.5593 87.5275 10.494C87.4435 9.766 87.3549 9.10333 87.2615 8.506C87.1775 7.90867 87.0655 7.29733 86.9255 6.672C86.8602 6.45733 86.8462 6.28933 86.8835 6.168C86.9302 6.03733 87.0702 5.986 87.3035 6.014C87.6302 6.07 87.8309 6.27533 87.9055 6.63ZM101.207 6.84C101.235 7.344 101.263 7.85267 101.291 8.366C101.328 8.87933 101.338 9.388 101.319 9.892C101.3 10.3867 101.249 10.872 101.165 11.348C101.09 11.824 100.96 12.2813 100.773 12.72C100.586 13.1493 100.334 13.5507 100.017 13.924C99.709 14.2973 99.317 14.6333 98.841 14.932C98.7663 14.9787 98.6823 15.0067 98.589 15.016C98.505 15.0253 98.421 15.0207 98.337 15.002C98.253 14.9927 98.1783 14.9693 98.113 14.932C98.0476 14.904 98.0056 14.862 97.987 14.806C97.959 14.722 97.973 14.6287 98.029 14.526C98.085 14.4233 98.1783 14.316 98.309 14.204C98.7196 13.896 99.065 13.5693 99.345 13.224C99.625 12.8787 99.849 12.5053 100.017 12.104C100.185 11.7027 100.292 11.2687 100.339 10.802C100.395 10.326 100.395 9.808 100.339 9.248C100.227 9.388 100.096 9.53267 99.947 9.682C99.7976 9.83133 99.639 9.96667 99.471 10.088C99.303 10.2 99.1303 10.298 98.953 10.382C98.7756 10.4567 98.6076 10.494 98.449 10.494C98.3183 10.494 98.1876 10.466 98.057 10.41C97.9263 10.354 97.7956 10.2467 97.665 10.088C97.5156 9.892 97.3803 9.67267 97.259 9.43C97.147 9.178 97.049 8.93533 96.965 8.702C96.881 8.46867 96.811 8.25867 96.755 8.072C96.7083 7.88533 96.6803 7.75467 96.671 7.68C96.6523 7.58667 96.6523 7.498 96.671 7.414C96.6896 7.33 96.7503 7.27867 96.853 7.26C96.993 7.232 97.1236 7.24133 97.245 7.288C97.3663 7.33467 97.4503 7.40933 97.497 7.512C97.5343 7.61467 97.5856 7.77333 97.651 7.988C97.7163 8.20267 97.7956 8.41733 97.889 8.632C97.9823 8.83733 98.0803 9.01933 98.183 9.178C98.295 9.33667 98.4116 9.416 98.533 9.416C98.673 9.416 98.8363 9.346 99.023 9.206C99.219 9.066 99.4056 8.884 99.583 8.66C99.7603 8.436 99.9096 8.18867 100.031 7.918C100.162 7.638 100.227 7.36733 100.227 7.106C100.227 7.05 100.236 6.98467 100.255 6.91C100.274 6.83533 100.302 6.76533 100.339 6.7C100.376 6.62533 100.418 6.56467 100.465 6.518C100.521 6.462 100.577 6.42933 100.633 6.42C100.782 6.40133 100.913 6.44333 101.025 6.546C101.146 6.63933 101.207 6.73733 101.207 6.84ZM105.774 6.364C106.054 6.46667 106.288 6.62067 106.474 6.826C106.67 7.03133 106.82 7.26467 106.922 7.526C107.025 7.778 107.081 8.03933 107.09 8.31C107.109 8.58067 107.081 8.83267 107.006 9.066C106.904 9.32733 106.773 9.584 106.614 9.836C106.456 10.088 106.274 10.312 106.068 10.508C105.863 10.704 105.63 10.8627 105.368 10.984C105.107 11.1053 104.818 11.166 104.5 11.166C104.118 11.166 103.796 11.0773 103.534 10.9C103.273 10.7227 103.068 10.494 102.918 10.214C102.769 9.934 102.671 9.61667 102.624 9.262C102.587 8.90733 102.596 8.55267 102.652 8.198C102.69 7.93667 102.75 7.68467 102.834 7.442C102.928 7.19 103.044 6.97067 103.184 6.784C103.324 6.588 103.483 6.42933 103.66 6.308C103.847 6.18667 104.057 6.126 104.29 6.126C104.421 6.126 104.584 6.154 104.78 6.21C104.976 6.25667 105.158 6.32667 105.326 6.42C105.448 6.308 105.597 6.28933 105.774 6.364ZM105.242 7.386C105.14 7.32067 105.018 7.23667 104.878 7.134C104.748 7.022 104.631 6.966 104.528 6.966C104.416 6.966 104.304 7.01733 104.192 7.12C104.09 7.22267 103.996 7.344 103.912 7.484C103.838 7.61467 103.772 7.75 103.716 7.89C103.66 8.03 103.623 8.142 103.604 8.226C103.576 8.366 103.558 8.534 103.548 8.73C103.539 8.926 103.553 9.122 103.59 9.318C103.628 9.50467 103.698 9.67733 103.8 9.836C103.912 9.98533 104.076 10.0927 104.29 10.158C104.421 10.1953 104.575 10.1953 104.752 10.158C104.93 10.1113 105.102 10.032 105.27 9.92C105.448 9.808 105.611 9.65867 105.76 9.472C105.919 9.28533 106.04 9.07067 106.124 8.828C106.218 8.55733 106.218 8.27733 106.124 7.988C106.04 7.68933 105.863 7.47467 105.592 7.344C105.527 7.39067 105.462 7.414 105.396 7.414C105.331 7.414 105.28 7.40467 105.242 7.386ZM109.419 7.106C109.363 7.358 109.307 7.638 109.251 7.946C109.195 8.24467 109.153 8.534 109.125 8.814C109.106 9.094 109.106 9.346 109.125 9.57C109.153 9.794 109.213 9.95267 109.307 10.046C109.465 10.074 109.647 10.0087 109.853 9.85C110.058 9.682 110.259 9.472 110.455 9.22C110.651 8.968 110.828 8.69733 110.987 8.408C111.145 8.10933 111.257 7.848 111.323 7.624C111.36 7.512 111.393 7.39533 111.421 7.274C111.449 7.15267 111.463 7.02667 111.463 6.896C111.463 6.82133 111.509 6.75133 111.603 6.686C111.705 6.61133 111.789 6.56933 111.855 6.56C111.901 6.55067 111.953 6.56 112.009 6.588C112.074 6.616 112.13 6.658 112.177 6.714C112.233 6.76067 112.279 6.82133 112.317 6.896C112.363 6.96133 112.387 7.03133 112.387 7.106C112.405 7.386 112.433 7.694 112.471 8.03C112.508 8.366 112.55 8.702 112.597 9.038C112.653 9.374 112.709 9.70067 112.765 10.018C112.821 10.3353 112.877 10.62 112.933 10.872C112.961 10.9747 112.933 11.0913 112.849 11.222C112.765 11.3527 112.671 11.432 112.569 11.46C112.485 11.4787 112.396 11.4693 112.303 11.432C112.219 11.3947 112.153 11.32 112.107 11.208C112.06 11.0773 112.013 10.9187 111.967 10.732C111.929 10.536 111.892 10.3353 111.855 10.13C111.827 9.91533 111.799 9.71467 111.771 9.528C111.743 9.332 111.724 9.16867 111.715 9.038C111.575 9.29 111.407 9.54667 111.211 9.808C111.024 10.06 110.819 10.2933 110.595 10.508C110.38 10.7133 110.151 10.8767 109.909 10.998C109.675 11.11 109.433 11.152 109.181 11.124C108.807 11.0773 108.523 10.7273 108.327 10.074C108.252 9.81267 108.215 9.52333 108.215 9.206C108.224 8.88867 108.247 8.576 108.285 8.268C108.331 7.95067 108.383 7.652 108.439 7.372C108.504 7.092 108.56 6.86333 108.607 6.686C108.625 6.61133 108.663 6.546 108.719 6.49C108.775 6.42467 108.84 6.40133 108.915 6.42C109.055 6.448 109.181 6.532 109.293 6.672C109.414 6.812 109.456 6.95667 109.419 7.106ZM118.143 6.42C117.975 6.51333 117.797 6.61133 117.611 6.714C117.433 6.81667 117.251 6.938 117.065 7.078C116.887 7.20867 116.715 7.36733 116.547 7.554C116.388 7.73133 116.243 7.946 116.113 8.198C115.926 8.55267 115.8 8.91667 115.735 9.29C115.669 9.654 115.627 10.0133 115.609 10.368C115.609 10.536 115.567 10.7087 115.483 10.886C115.408 11.054 115.301 11.138 115.161 11.138C114.983 11.138 114.839 11.0493 114.727 10.872C114.624 10.6853 114.554 10.508 114.517 10.34C114.358 9.67733 114.227 9.024 114.125 8.38C114.022 7.72667 113.933 7.078 113.859 6.434C113.859 6.30333 113.896 6.21933 113.971 6.182C114.055 6.14467 114.148 6.13067 114.251 6.14C114.363 6.14933 114.47 6.17733 114.573 6.224C114.675 6.27067 114.736 6.34533 114.755 6.448C114.792 6.79333 114.839 7.15733 114.895 7.54C114.951 7.91333 115.007 8.23533 115.063 8.506C115.1 8.18867 115.203 7.88067 115.371 7.582C115.539 7.28333 115.744 7.01267 115.987 6.77C116.239 6.52733 116.519 6.322 116.827 6.154C117.144 5.986 117.466 5.874 117.793 5.818C117.933 5.79933 118.049 5.79933 118.143 5.818C118.236 5.83667 118.301 5.86933 118.339 5.916C118.376 5.96267 118.381 6.03733 118.353 6.14C118.334 6.24267 118.264 6.336 118.143 6.42ZM126.412 6.07C126.449 6.33133 126.477 6.61133 126.496 6.91C126.524 7.19933 126.543 7.49333 126.552 7.792C126.571 8.09067 126.58 8.38 126.58 8.66C126.58 8.94 126.575 9.192 126.566 9.416C126.865 9.62133 127.042 9.80333 127.098 9.962C127.163 10.1207 127.173 10.2607 127.126 10.382C127.07 10.55 126.967 10.6387 126.818 10.648C126.678 10.648 126.515 10.5967 126.328 10.494C126.197 10.5873 126.048 10.69 125.88 10.802C125.712 10.9047 125.535 11.0073 125.348 11.11C125.161 11.2033 124.975 11.2873 124.788 11.362C124.601 11.4367 124.429 11.488 124.27 11.516C123.971 11.5627 123.701 11.5067 123.458 11.348C123.225 11.1893 123.066 10.9513 122.982 10.634C122.926 10.4193 122.912 10.2 122.94 9.976C122.968 9.74267 123.038 9.52333 123.15 9.318C123.262 9.10333 123.411 8.912 123.598 8.744C123.794 8.576 124.023 8.44533 124.284 8.352C124.349 8.324 124.438 8.30067 124.55 8.282C124.671 8.26333 124.793 8.25867 124.914 8.268C125.045 8.268 125.175 8.29133 125.306 8.338C125.437 8.38467 125.558 8.464 125.67 8.576C125.67 8.41733 125.665 8.24467 125.656 8.058C125.656 7.862 125.651 7.666 125.642 7.47C125.633 7.274 125.619 7.092 125.6 6.924C125.591 6.74667 125.577 6.59733 125.558 6.476C125.539 6.336 125.483 6.252 125.39 6.224C125.306 6.18667 125.199 6.19133 125.068 6.238C124.844 6.31267 124.583 6.45733 124.284 6.672C123.985 6.88667 123.701 7.11533 123.43 7.358C123.346 7.442 123.248 7.47933 123.136 7.47C123.033 7.46067 122.945 7.41867 122.87 7.344C122.795 7.26933 122.753 7.18533 122.744 7.092C122.735 6.98933 122.772 6.882 122.856 6.77C123.015 6.602 123.192 6.42933 123.388 6.252C123.584 6.07467 123.789 5.916 124.004 5.776C124.219 5.62667 124.438 5.50533 124.662 5.412C124.886 5.31867 125.11 5.26733 125.334 5.258C125.661 5.24867 125.913 5.32333 126.09 5.482C126.267 5.63133 126.375 5.82733 126.412 6.07ZM124.788 9.08C124.667 9.108 124.536 9.16867 124.396 9.262C124.265 9.346 124.144 9.45333 124.032 9.584C123.929 9.70533 123.85 9.84533 123.794 10.004C123.747 10.1533 123.747 10.3027 123.794 10.452C123.813 10.508 123.85 10.55 123.906 10.578C123.971 10.606 124.041 10.6107 124.116 10.592C124.34 10.5453 124.592 10.4567 124.872 10.326C125.161 10.186 125.39 10.0367 125.558 9.878C125.558 9.822 125.53 9.752 125.474 9.668C125.418 9.57467 125.353 9.486 125.278 9.402C125.203 9.30867 125.119 9.22933 125.026 9.164C124.942 9.09867 124.863 9.07067 124.788 9.08ZM130.323 12.776C130.314 12.8787 130.267 12.972 130.183 13.056C130.099 13.1493 130.006 13.1913 129.903 13.182C129.744 13.1727 129.623 13.112 129.539 13C129.455 12.888 129.413 12.7947 129.413 12.72C129.413 12.3653 129.404 11.9967 129.385 11.614C129.366 11.222 129.343 10.8207 129.315 10.41C129.194 10.4287 129.082 10.4193 128.979 10.382C128.886 10.3353 128.82 10.2653 128.783 10.172C128.718 10.0133 128.727 9.87333 128.811 9.752C128.895 9.63067 129.03 9.514 129.217 9.402C129.17 9.05667 129.124 8.716 129.077 8.38C129.04 8.044 128.998 7.71733 128.951 7.4C128.942 7.344 128.946 7.29267 128.965 7.246C128.984 7.19933 129.007 7.15733 129.035 7.12C129.063 7.07333 129.114 7.03133 129.189 6.994C129.31 6.94733 129.446 6.98467 129.595 7.106C129.754 7.22733 129.861 7.38133 129.917 7.568C129.945 7.74533 129.973 7.95067 130.001 8.184C130.038 8.408 130.071 8.65533 130.099 8.926C130.295 8.80467 130.477 8.674 130.645 8.534C130.822 8.394 130.972 8.24467 131.093 8.086C131.224 7.92733 131.322 7.764 131.387 7.596C131.452 7.41867 131.471 7.23667 131.443 7.05C131.424 6.89133 131.354 6.75133 131.233 6.63C131.112 6.49933 130.92 6.42933 130.659 6.42C130.426 6.41067 130.192 6.42933 129.959 6.476C129.735 6.52267 129.511 6.58333 129.287 6.658C129.072 6.73267 128.858 6.82133 128.643 6.924C128.438 7.02667 128.237 7.12933 128.041 7.232C127.91 7.30667 127.78 7.33933 127.649 7.33C127.528 7.31133 127.448 7.26467 127.411 7.19C127.327 7.00333 127.332 6.83533 127.425 6.686C127.528 6.53667 127.682 6.39667 127.887 6.266C128.064 6.16333 128.274 6.06067 128.517 5.958C128.769 5.846 129.03 5.75267 129.301 5.678C129.581 5.594 129.861 5.538 130.141 5.51C130.43 5.47267 130.706 5.47733 130.967 5.524C131.228 5.56133 131.462 5.65 131.667 5.79C131.882 5.92067 132.054 6.11667 132.185 6.378C132.344 6.80733 132.386 7.204 132.311 7.568C132.246 7.92267 132.106 8.24933 131.891 8.548C131.686 8.83733 131.429 9.10333 131.121 9.346C130.822 9.57933 130.519 9.78933 130.211 9.976C130.258 10.48 130.29 10.9793 130.309 11.474C130.328 11.9687 130.332 12.4027 130.323 12.776ZM135.669 12.776C135.66 12.8787 135.613 12.972 135.529 13.056C135.445 13.1493 135.352 13.1913 135.249 13.182C135.09 13.1727 134.969 13.112 134.885 13C134.801 12.888 134.759 12.7947 134.759 12.72C134.759 12.3653 134.75 11.9967 134.731 11.614C134.712 11.222 134.689 10.8207 134.661 10.41C134.54 10.4287 134.428 10.4193 134.325 10.382C134.232 10.3353 134.166 10.2653 134.129 10.172C134.064 10.0133 134.073 9.87333 134.157 9.752C134.241 9.63067 134.376 9.514 134.563 9.402C134.516 9.05667 134.47 8.716 134.423 8.38C134.386 8.044 134.344 7.71733 134.297 7.4C134.288 7.344 134.292 7.29267 134.311 7.246C134.33 7.19933 134.353 7.15733 134.381 7.12C134.409 7.07333 134.46 7.03133 134.535 6.994C134.656 6.94733 134.792 6.98467 134.941 7.106C135.1 7.22733 135.207 7.38133 135.263 7.568C135.291 7.74533 135.319 7.95067 135.347 8.184C135.384 8.408 135.417 8.65533 135.445 8.926C135.641 8.80467 135.823 8.674 135.991 8.534C136.168 8.394 136.318 8.24467 136.439 8.086C136.57 7.92733 136.668 7.764 136.733 7.596C136.798 7.41867 136.817 7.23667 136.789 7.05C136.77 6.89133 136.7 6.75133 136.579 6.63C136.458 6.49933 136.266 6.42933 136.005 6.42C135.772 6.41067 135.538 6.42933 135.305 6.476C135.081 6.52267 134.857 6.58333 134.633 6.658C134.418 6.73267 134.204 6.82133 133.989 6.924C133.784 7.02667 133.583 7.12933 133.387 7.232C133.256 7.30667 133.126 7.33933 132.995 7.33C132.874 7.31133 132.794 7.26467 132.757 7.19C132.673 7.00333 132.678 6.83533 132.771 6.686C132.874 6.53667 133.028 6.39667 133.233 6.266C133.41 6.16333 133.62 6.06067 133.863 5.958C134.115 5.846 134.376 5.75267 134.647 5.678C134.927 5.594 135.207 5.538 135.487 5.51C135.776 5.47267 136.052 5.47733 136.313 5.524C136.574 5.56133 136.808 5.65 137.013 5.79C137.228 5.92067 137.4 6.11667 137.531 6.378C137.69 6.80733 137.732 7.204 137.657 7.568C137.592 7.92267 137.452 8.24933 137.237 8.548C137.032 8.83733 136.775 9.10333 136.467 9.346C136.168 9.57933 135.865 9.78933 135.557 9.976C135.604 10.48 135.636 10.9793 135.655 11.474C135.674 11.9687 135.678 12.4027 135.669 12.776ZM139.811 4.698C139.857 5.71533 139.937 6.77 140.049 7.862C140.161 8.94467 140.282 9.98067 140.413 10.97C140.441 11.3807 140.329 11.5907 140.077 11.6C140.021 11.6 139.965 11.5813 139.909 11.544C139.853 11.4973 139.801 11.4413 139.755 11.376C139.708 11.3107 139.661 11.2407 139.615 11.166C139.577 11.0913 139.554 11.026 139.545 10.97C139.47 10.494 139.4 9.99 139.335 9.458C139.269 8.926 139.209 8.394 139.153 7.862C139.106 7.32067 139.064 6.79333 139.027 6.28C138.989 5.76667 138.966 5.29533 138.957 4.866C138.975 4.642 139.008 4.45533 139.055 4.306C139.101 4.14733 139.199 4.07267 139.349 4.082C139.507 4.09133 139.619 4.15667 139.685 4.278C139.759 4.39 139.801 4.53 139.811 4.698ZM143.912 5.538C143.894 5.63133 143.828 5.68267 143.716 5.692C143.604 5.70133 143.511 5.706 143.436 5.706C143.203 5.71533 142.96 5.73867 142.708 5.776C142.466 5.81333 142.209 5.86933 141.938 5.944C141.826 5.98133 141.705 5.96733 141.574 5.902C141.444 5.83667 141.364 5.706 141.336 5.51C141.336 5.43533 141.364 5.37467 141.42 5.328C141.476 5.28133 141.542 5.23933 141.616 5.202C141.738 5.146 141.882 5.09933 142.05 5.062C142.218 5.01533 142.386 4.98267 142.554 4.964C142.732 4.94533 142.9 4.94067 143.058 4.95C143.217 4.95 143.348 4.964 143.45 4.992C143.6 5.03867 143.716 5.10867 143.8 5.202C143.894 5.29533 143.931 5.40733 143.912 5.538ZM143.59 10.2C143.656 10.3493 143.688 10.5127 143.688 10.69C143.698 10.858 143.651 10.9747 143.548 11.04C143.418 11.124 143.278 11.1193 143.128 11.026C142.979 10.9327 142.867 10.8067 142.792 10.648C142.69 10.452 142.61 10.214 142.554 9.934C142.498 9.64467 142.456 9.36 142.428 9.08C142.4 8.8 142.382 8.53867 142.372 8.296C142.372 8.05333 142.372 7.87133 142.372 7.75C142.382 7.61933 142.419 7.498 142.484 7.386C142.55 7.274 142.634 7.20867 142.736 7.19C142.904 7.19933 143.04 7.27867 143.142 7.428C143.245 7.568 143.292 7.74533 143.282 7.96C143.282 8.128 143.287 8.31467 143.296 8.52C143.306 8.72533 143.324 8.93067 143.352 9.136C143.38 9.34133 143.413 9.542 143.45 9.738C143.488 9.92467 143.534 10.0787 143.59 10.2ZM148.171 7.652C148.106 7.68933 148.026 7.70333 147.933 7.694C147.84 7.67533 147.76 7.61467 147.695 7.512C147.546 7.316 147.364 7.218 147.149 7.218C146.953 7.218 146.776 7.26467 146.617 7.358C146.468 7.442 146.332 7.55867 146.211 7.708C146.099 7.848 146.006 8.00667 145.931 8.184C145.856 8.36133 145.805 8.53867 145.777 8.716C145.73 9.04267 145.786 9.318 145.945 9.542C146.104 9.766 146.351 9.878 146.687 9.878C146.958 9.88733 147.261 9.836 147.597 9.724C147.942 9.60267 148.264 9.44867 148.563 9.262C148.694 9.206 148.815 9.17333 148.927 9.164C149.039 9.15467 149.132 9.21067 149.207 9.332C149.3 9.48133 149.277 9.63533 149.137 9.794C148.997 9.94333 148.81 10.0787 148.577 10.2C148.344 10.3307 148.096 10.4473 147.835 10.55C147.583 10.6433 147.326 10.7133 147.065 10.76C146.804 10.7973 146.542 10.7973 146.281 10.76C146.029 10.7227 145.791 10.634 145.567 10.494C145.212 10.2513 144.998 9.906 144.923 9.458C144.848 9.01 144.881 8.548 145.021 8.072C145.077 7.89467 145.156 7.71733 145.259 7.54C145.362 7.35333 145.483 7.18533 145.623 7.036C145.772 6.88667 145.936 6.76067 146.113 6.658C146.29 6.546 146.486 6.47133 146.701 6.434C147.046 6.378 147.378 6.41533 147.695 6.546C148.012 6.66733 148.222 6.896 148.325 7.232C148.344 7.30667 148.344 7.386 148.325 7.47C148.306 7.54467 148.255 7.60533 148.171 7.652ZM153.523 6.07C153.561 6.33133 153.589 6.61133 153.607 6.91C153.635 7.19933 153.654 7.49333 153.663 7.792C153.682 8.09067 153.691 8.38 153.691 8.66C153.691 8.94 153.687 9.192 153.677 9.416C153.976 9.62133 154.153 9.80333 154.209 9.962C154.275 10.1207 154.284 10.2607 154.237 10.382C154.181 10.55 154.079 10.6387 153.929 10.648C153.789 10.648 153.626 10.5967 153.439 10.494C153.309 10.5873 153.159 10.69 152.991 10.802C152.823 10.9047 152.646 11.0073 152.459 11.11C152.273 11.2033 152.086 11.2873 151.899 11.362C151.713 11.4367 151.54 11.488 151.381 11.516C151.083 11.5627 150.812 11.5067 150.569 11.348C150.336 11.1893 150.177 10.9513 150.093 10.634C150.037 10.4193 150.023 10.2 150.051 9.976C150.079 9.74267 150.149 9.52333 150.261 9.318C150.373 9.10333 150.523 8.912 150.709 8.744C150.905 8.576 151.134 8.44533 151.395 8.352C151.461 8.324 151.549 8.30067 151.661 8.282C151.783 8.26333 151.904 8.25867 152.025 8.268C152.156 8.268 152.287 8.29133 152.417 8.338C152.548 8.38467 152.669 8.464 152.781 8.576C152.781 8.41733 152.777 8.24467 152.767 8.058C152.767 7.862 152.763 7.666 152.753 7.47C152.744 7.274 152.73 7.092 152.711 6.924C152.702 6.74667 152.688 6.59733 152.669 6.476C152.651 6.336 152.595 6.252 152.501 6.224C152.417 6.18667 152.31 6.19133 152.179 6.238C151.955 6.31267 151.694 6.45733 151.395 6.672C151.097 6.88667 150.812 7.11533 150.541 7.358C150.457 7.442 150.359 7.47933 150.247 7.47C150.145 7.46067 150.056 7.41867 149.981 7.344C149.907 7.26933 149.865 7.18533 149.855 7.092C149.846 6.98933 149.883 6.882 149.967 6.77C150.126 6.602 150.303 6.42933 150.499 6.252C150.695 6.07467 150.901 5.916 151.115 5.776C151.33 5.62667 151.549 5.50533 151.773 5.412C151.997 5.31867 152.221 5.26733 152.445 5.258C152.772 5.24867 153.024 5.32333 153.201 5.482C153.379 5.63133 153.486 5.82733 153.523 6.07ZM151.899 9.08C151.778 9.108 151.647 9.16867 151.507 9.262C151.377 9.346 151.255 9.45333 151.143 9.584C151.041 9.70533 150.961 9.84533 150.905 10.004C150.859 10.1533 150.859 10.3027 150.905 10.452C150.924 10.508 150.961 10.55 151.017 10.578C151.083 10.606 151.153 10.6107 151.227 10.592C151.451 10.5453 151.703 10.4567 151.983 10.326C152.273 10.186 152.501 10.0367 152.669 9.878C152.669 9.822 152.641 9.752 152.585 9.668C152.529 9.57467 152.464 9.486 152.389 9.402C152.315 9.30867 152.231 9.22933 152.137 9.164C152.053 9.09867 151.974 9.07067 151.899 9.08ZM158.232 7.498C158.41 7.48867 158.587 7.53067 158.764 7.624C158.942 7.71733 159.03 7.862 159.03 8.058C159.012 8.21667 158.923 8.31933 158.764 8.366C158.615 8.40333 158.494 8.422 158.4 8.422C158.214 8.422 158.013 8.42667 157.798 8.436C157.584 8.44533 157.364 8.45933 157.14 8.478C157.122 8.786 157.103 9.07533 157.084 9.346C157.075 9.61667 157.066 9.85933 157.056 10.074C157.047 10.2793 157.042 10.4473 157.042 10.578C157.042 10.7087 157.047 10.7787 157.056 10.788C157.262 10.7507 157.481 10.69 157.714 10.606C157.957 10.5127 158.195 10.4147 158.428 10.312C158.671 10.2 158.904 10.088 159.128 9.976C159.362 9.85467 159.581 9.74267 159.786 9.64C159.88 9.59333 159.964 9.57933 160.038 9.598C160.122 9.61667 160.174 9.65867 160.192 9.724C160.211 9.82667 160.197 9.95267 160.15 10.102C160.104 10.2513 160.02 10.3867 159.898 10.508C159.758 10.62 159.572 10.7507 159.338 10.9C159.114 11.04 158.872 11.1753 158.61 11.306C158.349 11.4367 158.083 11.5533 157.812 11.656C157.551 11.7493 157.318 11.8053 157.112 11.824C156.804 11.852 156.571 11.768 156.412 11.572C156.254 11.376 156.165 11.1287 156.146 10.83C156.128 10.5313 156.123 10.186 156.132 9.794C156.151 9.402 156.17 8.98667 156.188 8.548C156.011 8.56667 155.838 8.58533 155.67 8.604C155.512 8.61333 155.358 8.62733 155.208 8.646C155.087 8.646 154.952 8.618 154.802 8.562C154.662 8.506 154.592 8.39867 154.592 8.24C154.592 8.184 154.616 8.10933 154.662 8.016C154.709 7.92267 154.812 7.85267 154.97 7.806C155.353 7.74067 155.778 7.68467 156.244 7.638C156.272 7.19933 156.305 6.77467 156.342 6.364C156.38 5.95333 156.412 5.58 156.44 5.244C156.45 5.132 156.482 5.034 156.538 4.95C156.594 4.866 156.655 4.824 156.72 4.824C156.879 4.81467 157.028 4.85667 157.168 4.95C157.318 5.034 157.392 5.132 157.392 5.244C157.355 5.56133 157.318 5.92067 157.28 6.322C157.252 6.72333 157.224 7.134 157.196 7.554C157.383 7.53533 157.56 7.526 157.728 7.526C157.906 7.51667 158.074 7.50733 158.232 7.498ZM163.121 5.538C163.103 5.63133 163.037 5.68267 162.925 5.692C162.813 5.70133 162.72 5.706 162.645 5.706C162.412 5.71533 162.169 5.73867 161.917 5.776C161.675 5.81333 161.418 5.86933 161.147 5.944C161.035 5.98133 160.914 5.96733 160.783 5.902C160.653 5.83667 160.573 5.706 160.545 5.51C160.545 5.43533 160.573 5.37467 160.629 5.328C160.685 5.28133 160.751 5.23933 160.825 5.202C160.947 5.146 161.091 5.09933 161.259 5.062C161.427 5.01533 161.595 4.98267 161.763 4.964C161.941 4.94533 162.109 4.94067 162.267 4.95C162.426 4.95 162.557 4.964 162.659 4.992C162.809 5.03867 162.925 5.10867 163.009 5.202C163.103 5.29533 163.14 5.40733 163.121 5.538ZM162.799 10.2C162.865 10.3493 162.897 10.5127 162.897 10.69C162.907 10.858 162.86 10.9747 162.757 11.04C162.627 11.124 162.487 11.1193 162.337 11.026C162.188 10.9327 162.076 10.8067 162.001 10.648C161.899 10.452 161.819 10.214 161.763 9.934C161.707 9.64467 161.665 9.36 161.637 9.08C161.609 8.8 161.591 8.53867 161.581 8.296C161.581 8.05333 161.581 7.87133 161.581 7.75C161.591 7.61933 161.628 7.498 161.693 7.386C161.759 7.274 161.843 7.20867 161.945 7.19C162.113 7.19933 162.249 7.27867 162.351 7.428C162.454 7.568 162.501 7.74533 162.491 7.96C162.491 8.128 162.496 8.31467 162.505 8.52C162.515 8.72533 162.533 8.93067 162.561 9.136C162.589 9.34133 162.622 9.542 162.659 9.738C162.697 9.92467 162.743 10.0787 162.799 10.2ZM167.38 6.364C167.66 6.46667 167.893 6.62067 168.08 6.826C168.276 7.03133 168.425 7.26467 168.528 7.526C168.631 7.778 168.687 8.03933 168.696 8.31C168.715 8.58067 168.687 8.83267 168.612 9.066C168.509 9.32733 168.379 9.584 168.22 9.836C168.061 10.088 167.879 10.312 167.674 10.508C167.469 10.704 167.235 10.8627 166.974 10.984C166.713 11.1053 166.423 11.166 166.106 11.166C165.723 11.166 165.401 11.0773 165.14 10.9C164.879 10.7227 164.673 10.494 164.524 10.214C164.375 9.934 164.277 9.61667 164.23 9.262C164.193 8.90733 164.202 8.55267 164.258 8.198C164.295 7.93667 164.356 7.68467 164.44 7.442C164.533 7.19 164.65 6.97067 164.79 6.784C164.93 6.588 165.089 6.42933 165.266 6.308C165.453 6.18667 165.663 6.126 165.896 6.126C166.027 6.126 166.19 6.154 166.386 6.21C166.582 6.25667 166.764 6.32667 166.932 6.42C167.053 6.308 167.203 6.28933 167.38 6.364ZM166.848 7.386C166.745 7.32067 166.624 7.23667 166.484 7.134C166.353 7.022 166.237 6.966 166.134 6.966C166.022 6.966 165.91 7.01733 165.798 7.12C165.695 7.22267 165.602 7.344 165.518 7.484C165.443 7.61467 165.378 7.75 165.322 7.89C165.266 8.03 165.229 8.142 165.21 8.226C165.182 8.366 165.163 8.534 165.154 8.73C165.145 8.926 165.159 9.122 165.196 9.318C165.233 9.50467 165.303 9.67733 165.406 9.836C165.518 9.98533 165.681 10.0927 165.896 10.158C166.027 10.1953 166.181 10.1953 166.358 10.158C166.535 10.1113 166.708 10.032 166.876 9.92C167.053 9.808 167.217 9.65867 167.366 9.472C167.525 9.28533 167.646 9.07067 167.73 8.828C167.823 8.55733 167.823 8.27733 167.73 7.988C167.646 7.68933 167.469 7.47467 167.198 7.344C167.133 7.39067 167.067 7.414 167.002 7.414C166.937 7.414 166.885 7.40467 166.848 7.386ZM170.716 6.63C170.744 6.77 170.772 6.92867 170.8 7.106C170.837 7.274 170.875 7.45133 170.912 7.638C170.949 7.81533 170.982 7.99733 171.01 8.184C171.038 8.37067 171.061 8.548 171.08 8.716C171.192 8.47333 171.313 8.21667 171.444 7.946C171.575 7.67533 171.715 7.428 171.864 7.204C172.023 6.97067 172.186 6.77933 172.354 6.63C172.531 6.48067 172.723 6.406 172.928 6.406C173.236 6.406 173.493 6.518 173.698 6.742C173.913 6.966 174.09 7.246 174.23 7.582C174.379 7.90867 174.496 8.254 174.58 8.618C174.664 8.982 174.734 9.304 174.79 9.584C174.846 9.836 174.734 10.0227 174.454 10.144C174.323 10.2093 174.225 10.2187 174.16 10.172C174.095 10.1253 174.057 10.0787 174.048 10.032C174.001 9.92 173.941 9.724 173.866 9.444C173.801 9.164 173.721 8.87933 173.628 8.59C173.544 8.30067 173.446 8.04867 173.334 7.834C173.222 7.61933 173.096 7.52133 172.956 7.54C172.788 7.54933 172.639 7.67533 172.508 7.918C172.396 8.114 172.279 8.33333 172.158 8.576C172.046 8.80933 171.934 9.052 171.822 9.304C171.71 9.54667 171.598 9.794 171.486 10.046C171.383 10.2887 171.285 10.5127 171.192 10.718C171.127 10.7833 171.043 10.83 170.94 10.858C170.847 10.8767 170.749 10.8673 170.646 10.83C170.553 10.802 170.478 10.7553 170.422 10.69C170.366 10.6247 170.338 10.5593 170.338 10.494C170.254 9.766 170.165 9.10333 170.072 8.506C169.988 7.90867 169.876 7.29733 169.736 6.672C169.671 6.45733 169.657 6.28933 169.694 6.168C169.741 6.03733 169.881 5.986 170.114 6.014C170.441 6.07 170.641 6.27533 170.716 6.63Z" fill="#525866"/>
</g>
<path d="M164.773 21.7932C166.912 26.9372 175.371 43.1813 184.135 36.9207C186.617 35.1475 188.427 29.3982 184.829 27.5515C180.032 25.0889 178.333 32.7806 179.793 35.8469C183.638 43.9248 195.543 44.7525 202.793 41.9402C208.881 39.5785 213.414 34.2069 216.74 28.7955C218.301 26.2571 218.512 23.4148 219.876 20.8842C221.987 16.9695 221.177 23.202 221.769 25.5616C222.978 30.3831 220.773 22.6138 220.365 20.9491C219.694 18.2024 213.503 21.5659 210.969 22.4419" stroke="#99A0AE" stroke-width="1.5" stroke-linecap="round"/>
<defs>
<clipPath id="clip0_8347_465149">
<rect width="191" height="18" fill="white"/>
</clipPath>
</defs>
</svg>
