<svg width="275" height="557" viewBox="0 0 275 557" fill="none" xmlns="http://www.w3.org/2000/svg">
<g clip-path="url(#clip0_8506_516422)">
<mask id="mask0_8506_516422" style="mask-type:luminance" maskUnits="userSpaceOnUse" x="2" y="1" width="271" height="556">
<path d="M237.458 1.25H37.5039C18.1739 1.25 2.50391 16.92 2.50391 36.25V521.296C2.50391 540.626 18.1739 556.296 37.5039 556.296H237.458C256.788 556.296 272.458 540.626 272.458 521.296V36.25C272.458 16.92 256.788 1.25 237.458 1.25Z" fill="white"/>
</mask>
<g mask="url(#mask0_8506_516422)">
<path d="M237.458 1.25H37.5039C18.1739 1.25 2.50391 16.92 2.50391 36.25V521.296C2.50391 540.626 18.1739 556.296 37.5039 556.296H237.458C256.788 556.296 272.458 540.626 272.458 521.296V36.25C272.458 16.92 256.788 1.25 237.458 1.25Z" fill="url(#paint0_linear_8506_516422)"/>
<path d="M272.789 1.25H2.17188V586.788H272.789V1.25Z" fill="url(#paint1_linear_8506_516422)"/>
<mask id="mask1_8506_516422" style="mask-type:alpha" maskUnits="userSpaceOnUse" x="2" y="1" width="272" height="556">
<path opacity="0.3" d="M273.095 1.35156H2.03125V556.323H273.095V1.35156Z" fill="white"/>
</mask>
<g mask="url(#mask1_8506_516422)">
<g opacity="0.18">
<g opacity="0.2" filter="url(#filter0_f_8506_516422)">
<path d="M-21.2672 33.2967C-24.491 60.6645 17.8662 88.1477 73.3402 94.6822C128.814 101.217 176.398 84.3278 179.622 56.96C182.846 29.5922 140.488 2.10902 85.0144 -4.42544C29.5404 -10.9599 -18.0435 5.92885 -21.2672 33.2967Z" fill="#80D9FF"/>
</g>
</g>
<path opacity="0.8" d="M108.249 48.2578C115.573 48.2578 121.09 53.7754 121.09 64.9326V64.9814C121.09 77.2129 116.086 84.5127 108.078 84.5127C102.218 84.5127 98.0928 80.9482 97.2139 76.1875L97.1651 75.8701H99.1182L99.1671 76.1387C100.021 79.9961 103.537 82.7549 108.078 82.7549C115.622 82.7549 119.113 75.0156 119.186 65.3232C119.211 64.835 119.211 64.3467 119.186 63.9316H119.088C117.892 68.4482 113.424 71.8174 108.053 71.8174C101.413 71.8174 96.3594 66.8125 96.3594 60.2207V60.1719C96.3594 53.3604 101.461 48.2578 108.249 48.2578ZM108.273 70.084C113.766 70.084 118.405 65.7383 118.405 60.6357V60.5869C118.405 54.7764 114.157 50.0156 108.249 50.0156C102.682 50.0156 98.3126 54.4346 98.3126 60.1475V60.1963C98.3126 65.7871 102.633 70.084 108.273 70.084ZM128.366 57.3643C127.487 57.3643 126.779 56.6318 126.779 55.7529C126.779 54.8984 127.487 54.166 128.366 54.166C129.245 54.166 129.953 54.8984 129.953 55.7529C129.953 56.6318 129.245 57.3643 128.366 57.3643ZM128.366 78.5801C127.487 78.5801 126.779 77.8477 126.779 76.9932C126.779 76.1143 127.487 75.3818 128.366 75.3818C129.245 75.3818 129.953 76.1143 129.953 76.9932C129.953 77.8477 129.245 78.5801 128.366 78.5801ZM153.293 84V75.1865H135.153V73.4043L152.414 48.7705H155.197V73.4287H160.788V75.1865H155.197V84H153.293ZM137.252 73.4287H153.293V50.748H153.195L137.252 73.3799V73.4287ZM173.532 84V50.8945H173.483L163.864 57.0225V54.9961L173.532 48.7705H175.436V84H173.532Z" fill="#0D0D0D"/>
<path opacity="0.8" d="M93.6113 101.002V93.6777H91.0215V92.5469H97.5078V93.6777H94.9238V101.002H93.6113ZM99.4004 101.125C98.0469 101.125 97.2734 100.252 97.2734 98.834V94.8379H98.539V98.5879C98.539 99.5196 98.9726 100.035 99.8515 100.035C100.742 100.035 101.317 99.3965 101.317 98.4356V94.8379H102.588V101.002H101.317V100.076H101.287C100.965 100.697 100.338 101.125 99.4004 101.125ZM106.473 101.125C104.662 101.125 103.567 99.8887 103.567 97.9434V97.9375C103.567 96.0098 104.68 94.7208 106.408 94.7208C108.137 94.7208 109.198 95.9629 109.198 97.8145V98.2421H104.832C104.856 99.4081 105.494 100.088 106.502 100.088C107.252 100.088 107.75 99.7012 107.908 99.2383L107.926 99.1915H109.127L109.116 99.2559C108.916 100.234 107.967 101.125 106.473 101.125ZM106.414 95.7579C105.594 95.7579 104.961 96.3145 104.85 97.3458H107.944C107.838 96.2793 107.241 95.7579 106.414 95.7579ZM112.491 101.125C110.95 101.125 110.047 100.363 109.918 99.2383L109.912 99.1856H111.166L111.178 99.2442C111.295 99.8125 111.717 100.147 112.496 100.147C113.258 100.147 113.715 99.8301 113.715 99.3321V99.3262C113.715 98.9278 113.492 98.6993 112.83 98.5411L111.823 98.3125C110.651 98.043 110.071 97.4805 110.071 96.584V96.5782C110.071 95.4766 111.032 94.7208 112.45 94.7208C113.908 94.7208 114.787 95.5352 114.852 96.584L114.858 96.6543H113.668L113.662 96.6133C113.586 96.0743 113.164 95.6993 112.45 95.6993C111.77 95.6993 111.342 96.0215 111.342 96.5137V96.5196C111.342 96.9004 111.594 97.1582 112.256 97.3165L113.258 97.545C114.518 97.8379 114.998 98.336 114.998 99.2208V99.2266C114.998 100.352 113.944 101.125 112.491 101.125ZM118.285 101.125C116.715 101.125 115.707 99.8829 115.707 97.92V97.9141C115.707 95.9512 116.727 94.7208 118.274 94.7208C119.147 94.7208 119.85 95.1602 120.219 95.8868H120.242V92.5469H121.514V101.002H120.242V99.959H120.219C119.85 100.68 119.17 101.125 118.285 101.125ZM118.619 100.035C119.575 100.035 120.248 99.2032 120.248 97.92V97.9141C120.248 96.6368 119.569 95.8046 118.619 95.8046C117.623 95.8046 117.002 96.6133 117.002 97.9141V97.92C117.002 99.2325 117.617 100.035 118.619 100.035ZM124.625 101.113C123.395 101.113 122.569 100.357 122.569 99.25V99.2383C122.569 98.1661 123.401 97.5098 124.86 97.4219L126.535 97.3223V96.8594C126.535 96.1797 126.096 95.7696 125.311 95.7696C124.578 95.7696 124.127 96.1153 124.022 96.6075L124.01 96.6602H122.815L122.821 96.5958C122.908 95.5352 123.828 94.7208 125.346 94.7208C126.852 94.7208 127.807 95.5176 127.807 96.754V101.002H126.535V100.029H126.512C126.155 100.691 125.44 101.113 124.625 101.113ZM123.846 99.2208C123.846 99.7598 124.291 100.1 124.971 100.1C125.862 100.1 126.535 99.4961 126.535 98.6934V98.2129L125.03 98.3067C124.268 98.3536 123.846 98.6875 123.846 99.209V99.2208ZM129.752 103.059C129.506 103.059 129.242 103.029 129.09 103V102.01C129.19 102.033 129.336 102.057 129.506 102.057C130.104 102.057 130.432 101.898 130.643 101.301L130.748 101.008L128.504 94.8379H129.875L131.428 99.8536H131.469L133.022 94.8379H134.358L132.061 101.289C131.604 102.566 130.959 103.059 129.752 103.059ZM133.86 102.701L134.34 99.7012H135.606L134.75 102.701H133.86ZM141.207 101.002V100.1L144.184 97.1055C145.309 95.9805 145.561 95.5352 145.561 94.879V94.8671C145.555 94.0644 144.946 93.4902 144.09 93.4902C143.1 93.4902 142.391 94.1582 142.379 95.0137V95.0489H141.137V95.0137C141.137 93.502 142.42 92.4062 144.073 92.4062C145.696 92.4062 146.856 93.4258 146.856 94.7911V94.8027C146.856 95.7695 146.405 96.4551 144.887 97.9551L142.965 99.8418V99.8946H146.991V101.002H141.207ZM151.11 101.143C149.305 101.143 148.127 100.158 148.01 98.7812L148.004 98.7051H149.264L149.27 98.7696C149.352 99.5196 150.061 100.047 151.11 100.047C152.141 100.047 152.838 99.4727 152.838 98.6524V98.6407C152.838 97.6856 152.147 97.1524 151.016 97.1524H149.991V96.1329H150.981C151.948 96.1329 152.604 95.5645 152.604 94.7793V94.7676C152.604 93.9532 152.053 93.4786 151.098 93.4786C150.16 93.4786 149.504 93.9708 149.422 94.7559L149.416 94.8086H148.186L148.192 94.75C148.321 93.3379 149.446 92.4062 151.098 92.4062C152.78 92.4062 153.881 93.2969 153.881 94.5977V94.6094C153.881 95.6582 153.131 96.3614 152.1 96.5782V96.6075C153.342 96.7188 154.174 97.4688 154.174 98.6524V98.6641C154.174 100.111 152.903 101.143 151.11 101.143ZM159.981 101.143C158.416 101.143 157.502 100.188 157.432 98.8399L157.426 98.7696H158.721L158.727 98.8223C158.78 99.4668 159.184 99.9708 159.969 99.9708C160.836 99.9708 161.305 99.4551 161.305 98.4883V92.5469H162.617V98.5C162.617 100.164 161.639 101.143 159.981 101.143ZM166.139 101.125C164.785 101.125 164.012 100.252 164.012 98.834V94.8379H165.278V98.5879C165.278 99.5196 165.711 100.035 166.59 100.035C167.481 100.035 168.055 99.3965 168.055 98.4356V94.8379H169.326V101.002H168.055V100.076H168.026C167.703 100.697 167.076 101.125 166.139 101.125ZM170.58 101.002V94.8379H171.846V95.7696H171.875C172.198 95.1426 172.83 94.7208 173.762 94.7208C175.116 94.7208 175.895 95.5938 175.895 97.0118V101.002H174.623V97.252C174.623 96.3262 174.19 95.8046 173.311 95.8046C172.42 95.8046 171.846 96.4493 171.846 97.4102V101.002H170.58ZM179.75 101.125C177.94 101.125 176.844 99.8887 176.844 97.9434V97.9375C176.844 96.0098 177.957 94.7208 179.686 94.7208C181.414 94.7208 182.475 95.9629 182.475 97.8145V98.2421H178.11C178.133 99.4081 178.772 100.088 179.78 100.088C180.53 100.088 181.028 99.7012 181.186 99.2383L181.203 99.1915H182.405L182.393 99.2559C182.194 100.234 181.244 101.125 179.75 101.125ZM179.692 95.7579C178.871 95.7579 178.239 96.3145 178.127 97.3458H181.221C181.116 96.2793 180.518 95.7579 179.692 95.7579Z" fill="#0D0D0D"/>
<g style="mix-blend-mode:overlay" opacity="0.4">
<path d="M31.6188 24.5578V20.2552H31.5634L30.293 21.176V20.5183L31.6222 19.5629H32.2418V24.5578H31.6188ZM35.1643 24.6755C34.0601 24.6755 33.4024 23.6682 33.4024 22.0621V22.0552C33.4024 20.4491 34.0601 19.4453 35.1643 19.4453C36.2685 19.4453 36.9331 20.4491 36.9331 22.0552V22.0621C36.9331 23.6682 36.2685 24.6755 35.1643 24.6755ZM35.1643 24.132C35.8808 24.132 36.3066 23.3359 36.3066 22.0621V22.0552C36.3066 20.7814 35.8808 19.9922 35.1643 19.9922C34.4478 19.9922 34.0289 20.7814 34.0289 22.0552V22.0621C34.0289 23.3359 34.4478 24.132 35.1643 24.132ZM38.2598 21.169C38.0141 21.169 37.8098 20.9648 37.8098 20.7191C37.8098 20.4698 38.0141 20.2691 38.2598 20.2691C38.509 20.2691 38.7098 20.4698 38.7098 20.7191C38.7098 20.9648 38.509 21.169 38.2598 21.169ZM38.2598 23.8482C38.0141 23.8482 37.8098 23.644 37.8098 23.3982C37.8098 23.149 38.0141 22.9482 38.2598 22.9482C38.509 22.9482 38.7098 23.149 38.7098 23.3982C38.7098 23.644 38.509 23.8482 38.2598 23.8482ZM41.435 24.6755C40.5039 24.6755 39.8393 24.0766 39.7666 23.2771L39.7631 23.239H40.3619L40.3654 23.2667C40.4242 23.7444 40.8569 24.1251 41.4419 24.1251C42.1065 24.1251 42.5634 23.6509 42.5634 22.9759V22.969C42.5634 22.3044 42.0996 21.8302 41.4523 21.8302C41.12 21.8302 40.8361 21.9306 40.6215 22.1348C40.535 22.2179 40.4554 22.3148 40.3931 22.4325H39.8531L40.1162 19.5629H42.8957V20.1202H40.6077L40.4381 21.8094H40.4935C40.715 21.4737 41.1061 21.2902 41.5596 21.2902C42.4976 21.2902 43.1726 21.9929 43.1726 22.9586V22.9655C43.1726 23.9728 42.4492 24.6755 41.435 24.6755ZM45.6901 24.6409C44.6309 24.6409 43.8763 24.0455 43.8763 23.2078V23.2009C43.8763 22.5848 44.309 22.0725 44.9493 21.9236V21.9098C44.4024 21.7402 44.0563 21.3248 44.0563 20.7987V20.7918C44.0563 20.0372 44.7451 19.4799 45.6901 19.4799C46.6351 19.4799 47.3239 20.0372 47.3239 20.7918V20.7987C47.3239 21.3248 46.9777 21.7402 46.4308 21.9098V21.9236C47.0712 22.0725 47.5039 22.5848 47.5039 23.2009V23.2078C47.5039 24.0455 46.7493 24.6409 45.6901 24.6409ZM45.6901 21.6779C46.2924 21.6779 46.7043 21.3352 46.7043 20.8506V20.8437C46.7043 20.3591 46.2924 20.0164 45.6901 20.0164C45.0878 20.0164 44.6759 20.3591 44.6759 20.8437V20.8506C44.6759 21.3352 45.0878 21.6779 45.6901 21.6779ZM45.6901 24.0974C46.3789 24.0974 46.8704 23.7097 46.8704 23.1698V23.1628C46.8704 22.6159 46.3824 22.2248 45.6901 22.2248C44.9978 22.2248 44.5097 22.6159 44.5097 23.1628V23.1698C44.5097 23.7097 45.0013 24.0974 45.6901 24.0974Z" fill="#0D0D0D"/>
</g>
<path opacity="0.4" d="M31.6188 24.5578V20.2552H31.5634L30.293 21.176V20.5183L31.6222 19.5629H32.2418V24.5578H31.6188ZM35.1643 24.6755C34.0601 24.6755 33.4024 23.6682 33.4024 22.0621V22.0552C33.4024 20.4491 34.0601 19.4453 35.1643 19.4453C36.2685 19.4453 36.9331 20.4491 36.9331 22.0552V22.0621C36.9331 23.6682 36.2685 24.6755 35.1643 24.6755ZM35.1643 24.132C35.8808 24.132 36.3066 23.3359 36.3066 22.0621V22.0552C36.3066 20.7814 35.8808 19.9922 35.1643 19.9922C34.4478 19.9922 34.0289 20.7814 34.0289 22.0552V22.0621C34.0289 23.3359 34.4478 24.132 35.1643 24.132ZM38.2598 21.169C38.0141 21.169 37.8098 20.9648 37.8098 20.7191C37.8098 20.4698 38.0141 20.2691 38.2598 20.2691C38.509 20.2691 38.7098 20.4698 38.7098 20.7191C38.7098 20.9648 38.509 21.169 38.2598 21.169ZM38.2598 23.8482C38.0141 23.8482 37.8098 23.644 37.8098 23.3982C37.8098 23.149 38.0141 22.9482 38.2598 22.9482C38.509 22.9482 38.7098 23.149 38.7098 23.3982C38.7098 23.644 38.509 23.8482 38.2598 23.8482ZM41.435 24.6755C40.5039 24.6755 39.8393 24.0766 39.7666 23.2771L39.7631 23.239H40.3619L40.3654 23.2667C40.4242 23.7444 40.8569 24.1251 41.4419 24.1251C42.1065 24.1251 42.5634 23.6509 42.5634 22.9759V22.969C42.5634 22.3044 42.0996 21.8302 41.4523 21.8302C41.12 21.8302 40.8361 21.9306 40.6215 22.1348C40.535 22.2179 40.4554 22.3148 40.3931 22.4325H39.8531L40.1162 19.5629H42.8957V20.1202H40.6077L40.4381 21.8094H40.4935C40.715 21.4737 41.1061 21.2902 41.5596 21.2902C42.4976 21.2902 43.1726 21.9929 43.1726 22.9586V22.9655C43.1726 23.9728 42.4492 24.6755 41.435 24.6755ZM45.6901 24.6409C44.6309 24.6409 43.8763 24.0455 43.8763 23.2078V23.2009C43.8763 22.5848 44.309 22.0725 44.9493 21.9236V21.9098C44.4024 21.7402 44.0563 21.3248 44.0563 20.7987V20.7918C44.0563 20.0372 44.7451 19.4799 45.6901 19.4799C46.6351 19.4799 47.3239 20.0372 47.3239 20.7918V20.7987C47.3239 21.3248 46.9777 21.7402 46.4308 21.9098V21.9236C47.0712 22.0725 47.5039 22.5848 47.5039 23.2009V23.2078C47.5039 24.0455 46.7493 24.6409 45.6901 24.6409ZM45.6901 21.6779C46.2924 21.6779 46.7043 21.3352 46.7043 20.8506V20.8437C46.7043 20.3591 46.2924 20.0164 45.6901 20.0164C45.0878 20.0164 44.6759 20.3591 44.6759 20.8437V20.8506C44.6759 21.3352 45.0878 21.6779 45.6901 21.6779ZM45.6901 24.0974C46.3789 24.0974 46.8704 23.7097 46.8704 23.1698V23.1628C46.8704 22.6159 46.3824 22.2248 45.6901 22.2248C44.9978 22.2248 44.5097 22.6159 44.5097 23.1628V23.1698C44.5097 23.7097 45.0013 24.0974 45.6901 24.0974Z" fill="#0D0D0D"/>
<g style="mix-blend-mode:overlay">
<path fill-rule="evenodd" clip-rule="evenodd" d="M234.139 18.5417C234.139 17.6514 234.86 16.9297 235.751 16.9297H242.602C243.492 16.9297 244.214 17.6514 244.214 18.5417V20.5567C244.214 21.447 243.492 22.1687 242.602 22.1687H235.751C234.86 22.1687 234.139 21.447 234.139 20.5567V18.5417Z" fill="#0D0D0D"/>
<path d="M244.613 18.9453V20.6461C244.955 20.5021 245.178 20.167 245.178 19.7957C245.178 19.4245 244.955 19.0894 244.613 18.9453Z" fill="#0D0D0D"/>
<path d="M236.302 21.0217V18.7431H236.266L235.57 19.2271V18.6919L236.304 18.1822H236.896V21.0217H236.302ZM238.785 21.0945C238.085 21.0945 237.658 20.52 237.658 19.603V19.599C237.658 18.6801 238.085 18.1094 238.785 18.1094C239.488 18.1094 239.913 18.6801 239.913 19.599V19.603C239.913 20.52 239.488 21.0945 238.785 21.0945ZM238.785 20.6242C239.122 20.6242 239.313 20.2445 239.313 19.603V19.599C239.313 18.9556 239.122 18.5797 238.785 18.5797C238.451 18.5797 238.26 18.9556 238.26 19.599V19.603C238.26 20.2445 238.451 20.6242 238.785 20.6242ZM241.568 21.0945C240.868 21.0945 240.441 20.52 240.441 19.603V19.599C240.441 18.6801 240.868 18.1094 241.568 18.1094C242.271 18.1094 242.696 18.6801 242.696 19.599V19.603C242.696 20.52 242.271 21.0945 241.568 21.0945ZM241.568 20.6242C241.905 20.6242 242.096 20.2445 242.096 19.603V19.599C242.096 18.9556 241.905 18.5797 241.568 18.5797C241.234 18.5797 241.043 18.9556 241.043 19.599V19.603C241.043 20.2445 241.234 20.6242 241.568 20.6242Z" fill="white"/>
</g>
<g opacity="0.4">
<path fill-rule="evenodd" clip-rule="evenodd" d="M234.139 18.5417C234.139 17.6514 234.86 16.9297 235.751 16.9297H242.602C243.492 16.9297 244.214 17.6514 244.214 18.5417V20.5567C244.214 21.447 243.492 22.1687 242.602 22.1687H235.751C234.86 22.1687 234.139 21.447 234.139 20.5567V18.5417Z" fill="#0D0D0D"/>
<path d="M244.613 18.9453V20.6461C244.955 20.5021 245.178 20.167 245.178 19.7957C245.178 19.4245 244.955 19.0894 244.613 18.9453Z" fill="#0D0D0D"/>
<path d="M236.302 21.0217V18.7431H236.266L235.57 19.2271V18.6919L236.304 18.1822H236.896V21.0217H236.302ZM238.785 21.0945C238.085 21.0945 237.658 20.52 237.658 19.603V19.599C237.658 18.6801 238.085 18.1094 238.785 18.1094C239.488 18.1094 239.913 18.6801 239.913 19.599V19.603C239.913 20.52 239.488 21.0945 238.785 21.0945ZM238.785 20.6242C239.122 20.6242 239.313 20.2445 239.313 19.603V19.599C239.313 18.9556 239.122 18.5797 238.785 18.5797C238.451 18.5797 238.26 18.9556 238.26 19.599V19.603C238.26 20.2445 238.451 20.6242 238.785 20.6242ZM241.568 21.0945C240.868 21.0945 240.441 20.52 240.441 19.603V19.599C240.441 18.6801 240.868 18.1094 241.568 18.1094C242.271 18.1094 242.696 18.6801 242.696 19.599V19.603C242.696 20.52 242.271 21.0945 241.568 21.0945ZM241.568 20.6242C241.905 20.6242 242.096 20.2445 242.096 19.603V19.599C242.096 18.9556 241.905 18.5797 241.568 18.5797C241.234 18.5797 241.043 18.9556 241.043 19.599V19.603C241.043 20.2445 241.234 20.6242 241.568 20.6242Z" fill="white"/>
</g>
<g style="mix-blend-mode:overlay">
<path fill-rule="evenodd" clip-rule="evenodd" d="M227.859 18.3631C228.853 18.3631 229.809 18.753 230.53 19.4521C230.584 19.5061 230.671 19.5054 230.724 19.4506L231.243 18.9164C231.27 18.8886 231.285 18.8509 231.285 18.8117C231.284 18.7725 231.269 18.7351 231.241 18.7076C229.351 16.8579 226.368 16.8579 224.477 18.7076C224.449 18.735 224.434 18.7725 224.434 18.8117C224.433 18.8509 224.448 18.8885 224.475 18.9164L224.994 19.4506C225.048 19.5055 225.134 19.5062 225.189 19.4521C225.909 18.753 226.865 18.3631 227.859 18.3631ZM227.872 19.976C228.418 19.9759 228.944 20.1831 229.349 20.5573C229.404 20.6104 229.49 20.6093 229.544 20.5547L230.062 20.0205C230.089 19.9925 230.104 19.9545 230.104 19.915C230.103 19.8755 230.087 19.8378 230.06 19.8103C228.827 18.6398 226.918 18.6398 225.685 19.8103C225.657 19.8378 225.641 19.8755 225.641 19.915C225.64 19.9545 225.655 19.9925 225.683 20.0205L226.201 20.5547C226.254 20.6093 226.34 20.6104 226.395 20.5573C226.8 20.1834 227.326 19.9762 227.872 19.976ZM228.927 21.0183C228.928 21.0579 228.912 21.0961 228.885 21.1239L227.989 22.0468C227.962 22.0739 227.927 22.0892 227.889 22.0892C227.852 22.0892 227.816 22.0739 227.79 22.0468L226.894 21.1239C226.866 21.0961 226.851 21.0579 226.852 21.0183C226.852 20.9787 226.869 20.9412 226.898 20.9146C227.47 20.4206 228.308 20.4206 228.88 20.9146C228.909 20.9412 228.926 20.9787 228.927 21.0183Z" fill="#0D0D0D"/>
</g>
<path opacity="0.4" fill-rule="evenodd" clip-rule="evenodd" d="M227.859 18.3631C228.853 18.3631 229.809 18.753 230.53 19.4521C230.584 19.5061 230.671 19.5054 230.724 19.4506L231.243 18.9164C231.27 18.8886 231.285 18.8509 231.285 18.8117C231.284 18.7725 231.269 18.7351 231.241 18.7076C229.351 16.8579 226.368 16.8579 224.477 18.7076C224.449 18.735 224.434 18.7725 224.434 18.8117C224.433 18.8509 224.448 18.8885 224.475 18.9164L224.994 19.4506C225.048 19.5055 225.134 19.5062 225.189 19.4521C225.909 18.753 226.865 18.3631 227.859 18.3631ZM227.872 19.976C228.418 19.9759 228.944 20.1831 229.349 20.5573C229.404 20.6104 229.49 20.6093 229.544 20.5547L230.062 20.0205C230.089 19.9925 230.104 19.9545 230.104 19.915C230.103 19.8755 230.087 19.8378 230.06 19.8103C228.827 18.6398 226.918 18.6398 225.685 19.8103C225.657 19.8378 225.641 19.8755 225.641 19.915C225.64 19.9545 225.655 19.9925 225.683 20.0205L226.201 20.5547C226.254 20.6093 226.34 20.6104 226.395 20.5573C226.8 20.1834 227.326 19.9762 227.872 19.976ZM228.927 21.0183C228.928 21.0579 228.912 21.0961 228.885 21.1239L227.989 22.0468C227.962 22.0739 227.927 22.0892 227.889 22.0892C227.852 22.0892 227.816 22.0739 227.79 22.0468L226.894 21.1239C226.866 21.0961 226.851 21.0579 226.852 21.0183C226.852 20.9787 226.869 20.9412 226.898 20.9146C227.47 20.4206 228.308 20.4206 228.88 20.9146C228.909 20.9412 228.926 20.9787 228.927 21.0183Z" fill="#0D0D0D"/>
<g style="mix-blend-mode:overlay">
<path d="M217.984 18.528C217.984 18.3054 218.165 18.125 218.387 18.125H218.79C219.013 18.125 219.193 18.3054 219.193 18.528V21.752C219.193 21.9746 219.013 22.155 218.79 22.155H218.387C218.165 22.155 217.984 21.9746 217.984 21.752V18.528Z" fill="#0D0D0D"/>
<path d="M220 17.7233C220 17.5007 220.181 17.3203 220.403 17.3203H220.806C221.029 17.3203 221.209 17.5007 221.209 17.7233V21.7533C221.209 21.9759 221.029 22.1563 220.806 22.1563H220.403C220.181 22.1563 220 21.9759 220 21.7533V17.7233Z" fill="#0D0D0D"/>
<path d="M215.971 19.9421C215.971 19.7195 216.152 19.5391 216.374 19.5391H216.777C217 19.5391 217.18 19.7195 217.18 19.9421V21.7556C217.18 21.9782 217 22.1586 216.777 22.1586H216.374C216.152 22.1586 215.971 21.9782 215.971 21.7556V19.9421Z" fill="#0D0D0D"/>
<path d="M213.955 20.9499C213.955 20.7273 214.136 20.5469 214.358 20.5469H214.761C214.984 20.5469 215.164 20.7273 215.164 20.9499V21.7559C215.164 21.9785 214.984 22.1589 214.761 22.1589H214.358C214.136 22.1589 213.955 21.9785 213.955 21.7559V20.9499Z" fill="#0D0D0D"/>
</g>
<g opacity="0.4">
<path d="M217.984 18.528C217.984 18.3054 218.165 18.125 218.387 18.125H218.79C219.013 18.125 219.193 18.3054 219.193 18.528V21.752C219.193 21.9746 219.013 22.155 218.79 22.155H218.387C218.165 22.155 217.984 21.9746 217.984 21.752V18.528Z" fill="#0D0D0D"/>
<path d="M220 17.7233C220 17.5007 220.181 17.3203 220.403 17.3203H220.806C221.029 17.3203 221.209 17.5007 221.209 17.7233V21.7533C221.209 21.9759 221.029 22.1563 220.806 22.1563H220.403C220.181 22.1563 220 21.9759 220 21.7533V17.7233Z" fill="#0D0D0D"/>
<path d="M215.971 19.9421C215.971 19.7195 216.152 19.5391 216.374 19.5391H216.777C217 19.5391 217.18 19.7195 217.18 19.9421V21.7556C217.18 21.9782 217 22.1586 216.777 22.1586H216.374C216.152 22.1586 215.971 21.9782 215.971 21.7556V19.9421Z" fill="#0D0D0D"/>
<path d="M213.955 20.9499C213.955 20.7273 214.136 20.5469 214.358 20.5469H214.761C214.984 20.5469 215.164 20.7273 215.164 20.9499V21.7559C215.164 21.9785 214.984 22.1589 214.761 22.1589H214.358C214.136 22.1589 213.955 21.9785 213.955 21.7559V20.9499Z" fill="#0D0D0D"/>
</g>
</g>
<path d="M71.1537 13.1537C71.1537 10 68 10 68 10H206.131C206.131 10 202.745 10 202.745 13.1537C202.745 23.604 194.273 30.8142 183.823 30.8142H90.4745C80.0241 30.8142 71.1537 23.604 71.1537 13.1537Z" fill="#F9F9F9"/>
<path d="M151.132 18H123.882C123.395 18 123 18.3949 123 18.8819V20.2717C123 20.7588 123.395 21.1537 123.882 21.1537H151.132C151.619 21.1537 152.014 20.7588 152.014 20.2717V18.8819C152.014 18.3949 151.619 18 151.132 18Z" fill="#D2DBDF"/>
<path d="M168.046 25.0917C170.833 25.0917 173.092 22.8326 173.092 20.0459C173.092 17.2591 170.833 15 168.046 15C165.259 15 163 17.2591 163 20.0459C163 22.8326 165.259 25.0917 168.046 25.0917Z" fill="#EBECED"/>
<g opacity="0.5" filter="url(#filter1_i_8506_516422)">
<path d="M169.161 21.9701C170.226 21.3552 170.591 19.9933 169.976 18.9282C169.361 17.8632 167.999 17.4983 166.934 18.1132C165.869 18.7281 165.504 20.09 166.119 21.155C166.734 22.2201 168.096 22.585 169.161 21.9701Z" fill="url(#paint2_linear_8506_516422)"/>
</g>
<g opacity="0.1" filter="url(#filter2_f_8506_516422)">
<path d="M108.631 302.17C218.879 427.501 357.913 485.416 419.174 431.528C480.434 377.64 440.722 232.354 330.475 107.024C220.227 -18.306 81.1921 -76.2213 19.9317 -22.3331C-41.3287 31.555 -1.61666 176.84 108.631 302.17Z" fill="#5EC2ED"/>
</g>
<g opacity="0.3" filter="url(#filter3_f_8506_516422)">
<path d="M-62.7897 120.173C-46.554 159.068 12.7223 171.349 69.6075 147.604C126.493 123.859 159.446 73.0792 143.21 34.1839C126.974 -4.71135 67.6979 -16.993 10.8127 6.75212C-46.0725 30.4972 -79.0254 81.2773 -62.7897 120.173Z" fill="#79C9EC"/>
</g>
</g>
<path d="M237.458 5.25H37.5039C20.3831 5.25 6.50391 19.1292 6.50391 36.25V521.296C6.50391 538.417 20.3831 552.296 37.5039 552.296H237.458C254.579 552.296 268.458 538.417 268.458 521.296V36.25C268.458 19.1292 254.579 5.25 237.458 5.25Z" stroke="black" stroke-width="8"/>
<path d="M180.687 541.203H93.6733C92.7492 541.203 92 541.959 92 542.89C92 543.822 92.7492 544.578 93.6733 544.578H180.687C181.611 544.578 182.36 543.822 182.36 542.89C182.36 541.959 181.611 541.203 180.687 541.203Z" fill="black"/>
<path d="M218.236 0H215.713V2.52294H218.236V0Z" fill="#36444A"/>
<path d="M272.48 56.7651V54.2422H269.958V56.7651H272.48Z" fill="#36444A"/>
<path d="M2.52734 54.2427V56.7656H5.05029V54.2427H2.52734Z" fill="#36444A"/>
<path d="M272.48 500.804V498.281H269.958V500.804H272.48Z" fill="url(#paint3_linear_8506_516422)"/>
<path d="M2.52734 498.282V500.805H5.05029V498.282H2.52734Z" fill="url(#paint4_linear_8506_516422)"/>
<path d="M56.77 555.047H59.293V552.524H56.77V555.047Z" fill="url(#paint5_linear_8506_516422)"/>
<path d="M2.52099 89.5625H-0.00195312V108.484H2.52099V89.5625Z" fill="#2F3C41"/>
<path d="M2.51915 128.672H0.626953V169.039H2.51915V128.672Z" fill="#2F3C41"/>
<path d="M2.51915 180.391H0.626953V220.758H2.51915V180.391Z" fill="#2F3C41"/>
<path d="M272.471 208.141H274.994V142.544H272.471V208.141Z" fill="#2F3C41"/>
<g style="mix-blend-mode:overlay">
<path d="M68.7001 507.85C68.7001 499.096 61.6038 492 52.8501 492C44.0963 492 37 499.096 37 507.85C37 516.604 44.0963 523.7 52.8501 523.7C61.6038 523.7 68.7001 516.604 68.7001 507.85Z" fill="#F3F3F3" fill-opacity="0.4"/>
</g>
<g style="mix-blend-mode:overlay">
<path d="M50.1504 503.058V502.913C50.1504 502.216 50.4994 501.867 51.1723 501.867H54.1483C54.8213 501.867 55.1702 502.216 55.1702 502.913V503.058H50.1504ZM52.1893 513.801C51.5213 513.801 51.1674 513.442 51.1674 512.749V506.941C51.1674 506.398 51.0477 506.039 50.8533 505.74L50.5692 505.291C50.3199 504.907 50.1504 504.563 50.1504 504.105V503.711H55.1702V504.105C55.1702 504.563 55.0007 504.907 54.7565 505.291L54.4674 505.74C54.2779 506.039 54.1533 506.398 54.1533 506.941V512.749C54.1533 513.442 53.7994 513.801 53.1314 513.801H52.1893ZM51.7506 507.4V508.98C51.7506 509.489 52.1494 509.892 52.6628 509.892C53.1763 509.892 53.5751 509.489 53.5751 508.98V507.4C53.5751 506.886 53.1763 506.488 52.6628 506.488C52.1494 506.488 51.7506 506.886 51.7506 507.4ZM52.6628 509.568C52.3288 509.568 52.0696 509.319 52.0696 508.98C52.0696 508.656 52.3338 508.392 52.6628 508.392C52.9918 508.392 53.251 508.656 53.251 508.98C53.251 509.319 53.0018 509.568 52.6628 509.568Z" fill="#0D0D0D"/>
</g>
<g style="mix-blend-mode:overlay">
<path d="M50.1523 503.058V502.913C50.1523 502.216 50.5012 501.867 51.1742 501.867H54.1502C54.8231 501.867 55.1721 502.216 55.1721 502.913V503.058H50.1523ZM52.1911 513.801C51.5231 513.801 51.1692 513.442 51.1692 512.749V506.941C51.1692 506.398 51.0496 506.039 50.8552 505.74L50.571 505.291C50.3218 504.907 50.1523 504.563 50.1523 504.105V503.711H55.1721V504.105C55.1721 504.563 55.0026 504.907 54.7583 505.291L54.4692 505.74C54.2798 506.039 54.1552 506.398 54.1552 506.941V512.749C54.1552 513.442 53.8012 513.801 53.1333 513.801H52.1911ZM51.7524 507.4V508.98C51.7524 509.489 52.1512 509.892 52.6647 509.892C53.1781 509.892 53.5769 509.489 53.5769 508.98V507.4C53.5769 506.886 53.1781 506.488 52.6647 506.488C52.1512 506.488 51.7524 506.886 51.7524 507.4ZM52.6647 509.568C52.3307 509.568 52.0715 509.319 52.0715 508.98C52.0715 508.656 52.3357 508.392 52.6647 508.392C52.9937 508.392 53.2529 508.656 53.2529 508.98C53.2529 509.319 53.0037 509.568 52.6647 509.568Z" fill="#0D0D0D"/>
</g>
<g style="mix-blend-mode:overlay">
<path d="M237.001 507.85C237.001 499.096 229.905 492 221.151 492C212.397 492 205.301 499.096 205.301 507.85C205.301 516.604 212.397 523.7 221.151 523.7C229.905 523.7 237.001 516.604 237.001 507.85Z" fill="#F3F3F3" fill-opacity="0.4"/>
</g>
<g style="mix-blend-mode:overlay">
<path d="M215.625 513.445C214.269 513.445 213.545 512.733 213.545 511.389V504.939C213.545 503.595 214.269 502.877 215.625 502.877H217.153C217.632 502.877 217.798 502.798 218.105 502.485L218.589 501.981C218.915 501.644 219.246 501.484 219.866 501.484H222.437C223.057 501.484 223.388 501.644 223.713 501.981L224.198 502.485C224.505 502.798 224.671 502.877 225.143 502.877H226.708C228.064 502.877 228.782 503.595 228.782 504.939V511.389C228.782 512.733 228.064 513.445 226.708 513.445H215.625ZM221.167 511.45C222.989 511.45 224.45 509.99 224.45 508.155C224.45 506.326 222.989 504.86 221.167 504.86C219.344 504.86 217.877 506.326 217.877 508.155C217.877 509.99 219.344 511.45 221.167 511.45ZM224.836 505.903C224.836 506.369 225.217 506.737 225.677 506.737C226.131 506.731 226.512 506.363 226.512 505.903C226.512 505.455 226.125 505.068 225.677 505.068C225.223 505.068 224.836 505.455 224.836 505.903ZM221.167 510.229C220.025 510.229 219.099 509.309 219.099 508.155C219.099 507.007 220.019 506.081 221.167 506.081C222.314 506.081 223.235 507.007 223.235 508.155C223.235 509.309 222.314 510.229 221.167 510.229Z" fill="#0D0D0D"/>
</g>
<g style="mix-blend-mode:overlay" opacity="0.5">
<path d="M215.625 513.445C214.269 513.445 213.545 512.733 213.545 511.389V504.939C213.545 503.595 214.269 502.877 215.625 502.877H217.153C217.632 502.877 217.798 502.798 218.105 502.485L218.589 501.981C218.915 501.644 219.246 501.484 219.866 501.484H222.437C223.057 501.484 223.388 501.644 223.713 501.981L224.198 502.485C224.505 502.798 224.671 502.877 225.143 502.877H226.708C228.064 502.877 228.782 503.595 228.782 504.939V511.389C228.782 512.733 228.064 513.445 226.708 513.445H215.625ZM221.167 511.45C222.989 511.45 224.45 509.99 224.45 508.155C224.45 506.326 222.989 504.86 221.167 504.86C219.344 504.86 217.877 506.326 217.877 508.155C217.877 509.99 219.344 511.45 221.167 511.45ZM224.836 505.903C224.836 506.369 225.217 506.737 225.677 506.737C226.131 506.731 226.512 506.363 226.512 505.903C226.512 505.455 226.125 505.068 225.677 505.068C225.223 505.068 224.836 505.455 224.836 505.903ZM221.167 510.229C220.025 510.229 219.099 509.309 219.099 508.155C219.099 507.007 220.019 506.081 221.167 506.081C222.314 506.081 223.235 507.007 223.235 508.155C223.235 509.309 222.314 510.229 221.167 510.229Z" fill="#0D0D0D"/>
</g>
</g>
<defs>
<filter id="filter0_f_8506_516422" x="-143.777" y="-128.165" width="445.909" height="346.588" filterUnits="userSpaceOnUse" color-interpolation-filters="sRGB">
<feFlood flood-opacity="0" result="BackgroundImageFix"/>
<feBlend mode="normal" in="SourceGraphic" in2="BackgroundImageFix" result="shape"/>
<feGaussianBlur stdDeviation="61.1686" result="effect1_foregroundBlur_8506_516422"/>
</filter>
<filter id="filter1_i_8506_516422" x="165.82" y="17.8125" width="4.45508" height="4.45312" filterUnits="userSpaceOnUse" color-interpolation-filters="sRGB">
<feFlood flood-opacity="0" result="BackgroundImageFix"/>
<feBlend mode="normal" in="SourceGraphic" in2="BackgroundImageFix" result="shape"/>
<feColorMatrix in="SourceAlpha" type="matrix" values="0 0 0 0 0 0 0 0 0 0 0 0 0 0 0 0 0 0 127 0" result="hardAlpha"/>
<feOffset/>
<feGaussianBlur stdDeviation="0.440974"/>
<feComposite in2="hardAlpha" operator="arithmetic" k2="-1" k3="1"/>
<feColorMatrix type="matrix" values="0 0 0 0 0.7 0 0 0 0 0.928 0 0 0 0 1 0 0 0 0.3 0"/>
<feBlend mode="normal" in2="shape" result="effect1_innerShadow_8506_516422"/>
</filter>
<filter id="filter2_f_8506_516422" x="-160.09" y="-193.717" width="759.285" height="796.628" filterUnits="userSpaceOnUse" color-interpolation-filters="sRGB">
<feFlood flood-opacity="0" result="BackgroundImageFix"/>
<feBlend mode="normal" in="SourceGraphic" in2="BackgroundImageFix" result="shape"/>
<feGaussianBlur stdDeviation="75.6161" result="effect1_foregroundBlur_8506_516422"/>
</filter>
<filter id="filter3_f_8506_516422" x="-151.998" y="-90.4118" width="384.415" height="335.183" filterUnits="userSpaceOnUse" color-interpolation-filters="sRGB">
<feFlood flood-opacity="0" result="BackgroundImageFix"/>
<feBlend mode="normal" in="SourceGraphic" in2="BackgroundImageFix" result="shape"/>
<feGaussianBlur stdDeviation="42.534" result="effect1_foregroundBlur_8506_516422"/>
</filter>
<linearGradient id="paint0_linear_8506_516422" x1="30.9335" y1="15.7038" x2="137.481" y2="556.296" gradientUnits="userSpaceOnUse">
<stop stop-color="white"/>
<stop offset="1" stop-color="#4F6E7C"/>
</linearGradient>
<linearGradient id="paint1_linear_8506_516422" x1="37.5927" y1="19.5107" x2="239.362" y2="546.3" gradientUnits="userSpaceOnUse">
<stop stop-color="white"/>
<stop offset="1" stop-color="white"/>
</linearGradient>
<linearGradient id="paint2_linear_8506_516422" x1="166.934" y1="18.1132" x2="169.161" y2="21.9701" gradientUnits="userSpaceOnUse">
<stop stop-color="#2E596C"/>
<stop offset="0.5" stop-color="#184C62" stop-opacity="0.3"/>
<stop offset="0.848958" stop-color="#3580A0"/>
<stop offset="1" stop-color="#4CAED9"/>
</linearGradient>
<linearGradient id="paint3_linear_8506_516422" x1="272.48" y1="499.543" x2="269.957" y2="499.543" gradientUnits="userSpaceOnUse">
<stop stop-color="#2F2F2F"/>
<stop offset="1" stop-color="#404040"/>
</linearGradient>
<linearGradient id="paint4_linear_8506_516422" x1="2.52734" y1="499.543" x2="5.05035" y2="499.543" gradientUnits="userSpaceOnUse">
<stop stop-color="#2F2F2F"/>
<stop offset="1" stop-color="#404040"/>
</linearGradient>
<linearGradient id="paint5_linear_8506_516422" x1="58.0316" y1="555.047" x2="58.0316" y2="552.524" gradientUnits="userSpaceOnUse">
<stop stop-color="#2F2F2F"/>
<stop offset="1" stop-color="#404040"/>
</linearGradient>
<clipPath id="clip0_8506_516422">
<rect width="275" height="557" fill="white"/>
</clipPath>
</defs>
</svg>
